# 3ds Max Wavefront OBJ Exporter v0.97b - (c)2007 guruware
# File Created: 20.07.2018 21:56:13

mtllib Grass_2.mtl

#
# object Plane002
#

v  7.4615 4.2657 -0.9307
v  7.4606 4.2662 -0.9351
v  6.0588 5.1290 -1.3098
v  6.1357 5.0823 -0.9581
v  4.4392 4.1577 -1.0577
v  4.6231 4.1110 -0.3252
v  3.8037 0.0125 -0.7910
v  4.0723 0.0121 0.1000
v  -8.6435 3.6700 1.2142
v  -8.6433 3.6705 1.2184
v  -7.2886 4.1778 1.3085
v  -7.3072 4.1591 0.9616
v  -5.5827 3.3247 1.5815
v  -5.6178 3.3432 0.8211
v  -4.8609 0.0028 1.7190
v  -4.9024 0.0033 0.7949
v  -0.4285 4.8454 8.3337
v  -0.4242 4.8456 8.3339
v  -0.1575 5.3302 6.9947
v  -0.5047 5.2964 6.9820
v  -0.0446 4.0740 5.3068
v  -0.8001 4.0391 5.2753
v  -0.0191 0.0106 4.6659
v  -0.9357 0.0106 4.5744
v  -1.2880 4.0703 -7.9125
v  -1.2919 4.0707 -7.9119
v  -0.7446 4.7202 -6.5013
v  -0.4119 4.6826 -6.5500
v  -0.7931 3.7078 -4.8758
v  -0.0316 3.6464 -4.9885
v  -0.9529 0.0066 -4.2814
v  -0.0309 0.0057 -4.3859
v  -6.1138 3.2155 5.0845
v  -6.1128 3.2155 5.0864
v  -5.1209 3.5569 4.3731
v  -5.2124 3.5485 4.2139
v  -4.0707 2.9986 3.6832
v  -4.2804 2.9511 3.3264
v  -3.7073 0.0099 3.4548
v  -3.9489 0.0087 3.0240
v  4.8394 3.7201 -4.8644
v  4.8376 3.7194 -4.8662
v  4.0380 4.0437 -4.2124
v  4.1810 4.1032 -4.0804
v  3.0443 3.1711 -3.3121
v  3.3771 3.2700 -3.0267
v  2.6139 0.0105 -2.9242
v  3.0251 0.0120 -2.5708
v  3.1791 3.5930 5.2122
v  3.1818 3.5930 5.2103
v  3.0376 4.0017 4.4289
v  2.8108 3.9993 4.5967
v  2.7030 3.1883 3.5195
v  2.1991 3.1632 3.8724
v  2.5218 0.0108 3.1933
v  1.9058 0.0101 3.6242
v  -4.6616 3.6243 -4.7420
v  -4.6637 3.6240 -4.7394
v  -4.1394 3.8490 -4.1997
v  -3.9482 3.8725 -4.4017
v  -3.5993 3.0638 -3.3998
v  -3.1806 3.0803 -3.8078
v  -3.4164 0.0097 -3.0522
v  -2.9112 0.0096 -3.5635
v  -5.7544 2.5152 8.6503
v  -5.7482 2.5150 8.6521
v  -4.3611 2.5101 6.5860
v  -4.7958 2.4940 6.3576
v  -2.2562 2.3098 4.4727
v  -3.0767 2.3031 3.8272
v  -1.3295 0.0019 3.6276
v  -2.3764 0.0022 2.7922
v  3.0957 2.3959 -8.4588
v  3.0889 2.3972 -8.4603
v  2.5060 2.6958 -6.3426
v  3.0542 2.7131 -6.2307
v  1.2202 2.0901 -3.8539
v  2.3060 2.1927 -3.5154
v  0.5618 -0.0012 -2.9090
v  1.8847 0.0002 -2.4154
v  6.9503 2.7045 4.9240
v  6.9559 2.7039 4.9192
v  5.7381 3.0113 3.0778
v  5.3156 3.0443 3.4923
v  3.8532 2.4088 1.2903
v  3.1235 2.3424 2.3782
v  3.1053 0.0021 0.7156
v  2.2687 0.0000 2.0754
v  -8.6391 2.7036 -3.0441
v  -8.6425 2.7019 -3.0381
v  -6.8535 2.6344 -1.9899
v  -6.5711 2.6915 -2.5392
v  -4.6100 2.1388 -1.2506
v  -4.0963 2.2193 -2.5133
v  -3.6723 0.0004 -0.9825
v  -3.1363 0.0007 -2.4539
v  -0.3817 2.2051 7.7673
v  -0.3771 2.2050 7.7673
v  -0.3193 2.3245 6.2714
v  -0.6977 2.3098 6.2753
v  0.2352 1.6468 4.4743
v  -0.6018 1.6668 4.4705
v  0.5459 -0.0025 3.7578
v  -0.4700 -0.0016 3.7259
v  -1.9017 0.0143 -7.3991
v  -1.9059 0.0143 -7.3980
v  -1.4871 1.8565 -5.8993
v  -1.1319 1.8035 -5.9839
v  -1.2849 0.0125 -4.1100
v  -0.4660 0.0115 -4.2777
v  -1.2896 -0.0037 -3.4481
v  -0.2815 -0.0045 -3.6274
v  7.0151 1.7338 -0.5547
v  7.0147 1.7341 -0.5593
v  5.5124 2.2536 -0.9509
v  5.5396 2.2173 -0.5732
v  3.7000 1.8076 -1.1593
v  3.7689 1.7777 -0.3344
v  2.9948 -0.0001 -1.1479
v  3.1046 -0.0003 -0.1465
v  -7.9903 1.0683 2.1781
v  -7.9892 1.0690 2.1827
v  -6.5063 1.2805 2.0023
v  -6.6065 1.2562 1.6490
v  -4.6968 0.0091 1.3371
v  -4.9336 0.0089 0.5935
v  -3.9313 -0.0046 1.0135
v  -4.2427 -0.0047 0.1005
# 128 vertices

vn 0.5859 0.8104 -0.0018
vn -0.5354 0.8177 0.2115
vn -0.9531 0.1362 0.2703
vn -0.4002 0.9157 -0.0373
vn 0.5003 0.8655 -0.0245
vn 0.9827 0.1800 -0.0423
vn -0.1179 0.9223 0.3680
vn -0.0289 0.7553 -0.6548
vn 0.0693 0.1388 -0.9879
vn 0.0441 0.8717 -0.4881
vn 0.1703 0.7951 0.5821
vn 0.1325 0.1340 0.9821
vn -0.3007 0.9469 0.1138
vn 0.3507 0.8812 -0.3170
vn 0.8571 0.1237 -0.5000
vn 0.0206 0.8747 -0.4843
vn -0.5564 0.7798 0.2870
vn -0.6576 0.1510 0.7381
vn 0.3231 0.8319 0.4511
vn -0.4372 0.6952 -0.5706
vn -0.5723 0.0995 -0.8140
vn -0.3062 0.9382 -0.1614
vn 0.4637 0.7182 0.5189
vn 0.7006 0.1022 0.7062
vn -0.0302 0.9993 -0.0233
vn 0.0301 0.9968 -0.0738
vn 0.5636 0.4173 -0.7129
vn -0.0000 0.9865 -0.1641
vn -0.1370 0.9716 0.1932
vn -0.3158 0.4149 0.8533
vn 0.1694 0.9823 0.0804
vn -0.2438 0.9562 -0.1620
vn -0.8051 0.3110 -0.5050
vn -0.0212 0.9934 0.1124
vn 0.2035 0.9633 0.1752
vn 0.8719 0.3458 0.3467
vn -0.0435 0.9949 0.0914
vn 0.0047 0.9189 -0.3946
vn 0.0227 0.3535 -0.9352
vn -0.0927 0.5794 -0.8097
vn 0.1936 0.6450 0.7393
vn 0.0064 0.9996 0.0280
vn 0.3570 0.9307 0.0791
vn -0.2769 0.9572 0.0841
vn -0.9449 0.3121 0.0985
vn -0.1693 0.9850 -0.0332
vn 0.5758 0.7934 -0.1977
vn 0.0184 0.9998 -0.0063
# 48 vertex normals

vt 0.2500 1.0000 0.0000
vt 0.2500 0.0000 0.0000
vt 0.5000 0.0000 0.0000
vt 0.5000 1.0000 0.0000
vt 0.7500 0.0000 0.0000
vt 0.7500 1.0000 0.0000
vt 1.0000 0.0000 0.0000
vt 1.0000 1.0000 0.0000
# 8 texture coords

g Plane002
usemtl wire_027177027
s off
f 1/1/1 2/2/1 3/3/1 4/4/1 
f 4/4/2 3/3/2 5/5/2 6/6/2 
f 6/6/3 5/5/3 7/7/3 8/8/3 
f 9/1/4 10/2/4 11/3/4 12/4/4 
f 12/4/5 11/3/5 13/5/5 14/6/5 
f 14/6/6 13/5/6 15/7/6 16/8/6 
f 17/1/7 18/2/7 19/3/7 20/4/7 
f 20/4/8 19/3/8 21/5/8 22/6/8 
f 22/6/9 21/5/9 23/7/9 24/8/9 
f 25/1/10 26/2/10 27/3/10 28/4/10 
f 28/4/11 27/3/11 29/5/11 30/6/11 
f 30/6/12 29/5/12 31/7/12 32/8/12 
f 33/1/13 34/2/13 35/3/13 36/4/13 
f 36/4/14 35/3/14 37/5/14 38/6/14 
f 38/6/15 37/5/15 39/7/15 40/8/15 
f 41/1/16 42/2/16 43/3/16 44/4/16 
f 44/4/17 43/3/17 45/5/17 46/6/17 
f 46/6/18 45/5/18 47/7/18 48/8/18 
f 49/1/19 50/2/19 51/3/19 52/4/19 
f 52/4/20 51/3/20 53/5/20 54/6/20 
f 54/6/21 53/5/21 55/7/21 56/8/21 
f 57/1/22 58/2/22 59/3/22 60/4/22 
f 60/4/23 59/3/23 61/5/23 62/6/23 
f 62/6/24 61/5/24 63/7/24 64/8/24 
f 65/1/25 66/2/25 67/3/25 68/4/25 
f 68/4/26 67/3/26 69/5/26 70/6/26 
f 70/6/27 69/5/27 71/7/27 72/8/27 
f 73/1/28 74/2/28 75/3/28 76/4/28 
f 76/4/29 75/3/29 77/5/29 78/6/29 
f 78/6/30 77/5/30 79/7/30 80/8/30 
f 81/1/31 82/2/31 83/3/31 84/4/31 
f 84/4/32 83/3/32 85/5/32 86/6/32 
f 86/6/33 85/5/33 87/7/33 88/8/33 
f 89/1/34 90/2/34 91/3/34 92/4/34 
f 92/4/35 91/3/35 93/5/35 94/6/35 
f 94/6/36 93/5/36 95/7/36 96/8/36 
f 97/1/37 98/2/37 99/3/37 100/4/37 
f 100/4/38 99/3/38 101/5/38 102/6/38 
f 102/6/39 101/5/39 103/7/39 104/8/39 
f 105/1/40 106/2/40 107/3/40 108/4/40 
f 108/4/41 107/3/41 109/5/41 110/6/41 
f 110/6/42 109/5/42 111/7/42 112/8/42 
f 113/1/43 114/2/43 115/3/43 116/4/43 
f 116/4/44 115/3/44 117/5/44 118/6/44 
f 118/6/45 117/5/45 119/7/45 120/8/45 
f 121/1/46 122/2/46 123/3/46 124/4/46 
f 124/4/47 123/3/47 125/5/47 126/6/47 
f 126/6/48 125/5/48 127/7/48 128/8/48 
# 48 polygons

