# 3ds Max Wavefront OBJ Exporter v0.97b - (c)2007 guruware
# File Created: 21.07.2018 20:50:39

mtllib Potne_cie_czaisz.mtl

#
# object Box087
#

v  0.0080 -0.0199 -0.0225
v  0.0080 0.0199 -0.0225
v  0.0080 0.0199 -0.0185
v  0.0080 -0.0199 -0.0185
v  -0.0080 -0.0199 -0.0225
v  -0.0080 -0.0199 -0.0185
v  -0.0080 0.0199 -0.0185
v  -0.0080 0.0199 -0.0225
# 8 vertices

vn 1.0000 0.0000 0.0000
vn -1.0000 0.0000 -0.0000
vn 0.0000 -1.0000 0.0000
vn -0.0000 0.0000 1.0000
vn -0.0000 1.0000 -0.0000
vn 0.0000 -0.0000 -1.0000
# 6 vertex normals

vt 1.0000 0.0000 0.0000
vt 1.0000 1.0000 0.0000
vt 0.0000 1.0000 0.0000
vt 0.0000 0.0000 0.0000
# 4 texture coords

g Box087
usemtl wire_115115115
s off
f 1/1/1 2/2/1 3/3/1 4/4/1 
f 5/4/2 6/1/2 7/2/2 8/3/2 
f 1/4/3 4/1/3 6/2/3 5/3/3 
f 4/4/4 3/1/4 7/2/4 6/3/4 
f 3/4/5 2/1/5 8/2/5 7/3/5 
f 2/4/6 1/1/6 5/2/6 8/3/6 
# 6 polygons

#
# object Box088
#

v  0.0040 -0.0120 -0.1023
v  0.0040 0.0120 -0.1023
v  0.0040 0.0120 -0.0225
v  0.0040 -0.0120 -0.0225
v  -0.0040 -0.0120 -0.1023
v  -0.0040 -0.0120 -0.0225
v  -0.0040 0.0120 -0.0225
v  -0.0040 0.0120 -0.1023
# 8 vertices

vn 1.0000 0.0000 0.0000
vn -1.0000 0.0000 -0.0000
vn 0.0000 -1.0000 0.0000
vn -0.0000 0.0000 1.0000
vn -0.0000 1.0000 -0.0000
vn 0.0000 -0.0000 -1.0000
# 6 vertex normals

vt 1.0000 0.0000 0.0000
vt 1.0000 1.0000 0.0000
vt 0.0000 1.0000 0.0000
vt 0.0000 0.0000 0.0000
# 4 texture coords

g Box088
usemtl wire_115115115
s off
f 9/5/7 10/6/7 11/7/7 12/8/7 
f 13/8/8 14/5/8 15/6/8 16/7/8 
f 9/8/9 12/5/9 14/6/9 13/7/9 
f 12/8/10 11/5/10 15/6/10 14/7/10 
f 11/8/11 10/5/11 16/6/11 15/7/11 
f 10/8/12 9/5/12 13/6/12 16/7/12 
# 6 polygons

#
# object Line007
#

v  0.0040 -0.0043 0.0713
v  0.0040 -0.0043 -0.0205
v  0.0040 0.0116 -0.0205
v  0.0040 0.0116 0.0891
v  -0.0040 -0.0043 0.0713
v  -0.0040 0.0116 0.0891
v  -0.0040 0.0116 -0.0205
v  -0.0040 -0.0043 -0.0205
v  0.0000 -0.0116 0.0764
v  0.0000 -0.0116 -0.0205
v  0.0000 0.0116 0.1023
# 11 vertices

vn 1.0000 0.0000 0.0000
vn -1.0000 0.0000 -0.0000
vn 0.8777 -0.4791 0.0000
vn 0.9110 -0.3068 0.2755
vn -0.8777 -0.4791 -0.0000
vn -0.9110 -0.3068 0.2755
vn -0.0000 1.0000 -0.0000
# 7 vertex normals

g Line007
usemtl wire_115115115
s off
f 17//13 18//13 19//13 20//13 
f 21//14 22//14 23//14 24//14 
f 25//15 26//15 18//15 17//15 
f 27//16 25//16 17//16 20//16 
f 26//17 25//17 21//17 24//17 
f 25//18 27//18 22//18 21//18 
f 23//19 22//19 27//19 20//19 19//19 
# 7 polygons

