# 3ds Max Wavefront OBJ Exporter v0.97b - (c)2007 guruware
# File Created: 20.07.2018 21:16:36

mtllib Stones_1.mtl

#
# object Object004
#

v  4.5443 2.5598 6.9558
v  5.9951 1.7659 6.2858
v  4.4730 1.0200 5.8424
v  3.5099 1.0058 7.2614
v  4.4125 1.3149 9.0527
v  6.1125 2.6490 8.1277
v  6.7576 0.8647 7.6632
v  5.8738 0.2104 6.5431
v  4.2775 -0.2821 6.6855
v  4.2881 -0.0472 9.2077
v  5.4628 1.0646 9.6052
v  5.4018 -0.1589 7.9233
v  9.2338 3.5328 1.3965
v  7.6557 3.6095 1.9256
v  8.2918 3.3254 3.5007
v  10.9226 2.4702 2.3890
v  11.8725 2.9225 0.2474
v  7.2390 3.4888 -1.1891
v  6.7439 2.0594 -0.1266
v  8.0928 1.1607 1.8491
v  9.0866 0.7457 2.3886
v  12.4174 0.5107 1.2956
v  8.6667 1.4180 -1.8597
v  8.8966 -0.6566 0.6068
v  2.2976 2.1768 -6.4347
v  1.4002 1.7744 -6.6202
v  2.0504 1.3212 -5.8528
v  2.9583 1.2726 -6.3709
v  3.1910 1.6791 -7.3071
v  1.7609 2.1581 -7.6072
v  1.3627 1.2092 -7.5187
v  1.5470 0.8026 -6.6761
v  2.3756 0.5306 -6.3078
v  3.3267 0.7854 -7.1254
v  2.3438 1.3675 -8.1201
v  2.2945 0.5684 -7.4239
v  -4.9204 4.4272 1.7053
v  -4.7247 3.8101 4.0886
v  -4.0960 1.6871 3.8223
v  -3.4014 1.8555 1.0632
v  -5.0890 1.8988 0.1013
v  -7.7852 5.1440 4.2326
v  -6.6622 1.8974 4.1797
v  -4.5656 1.0983 4.7680
v  -4.0503 -0.5850 3.6060
v  -5.3085 0.9498 0.3800
v  -7.7159 2.5016 1.3342
v  -5.8285 0.2054 3.0318
v  4.5443 3.6061 -6.6369
v  5.9951 2.8122 -7.3069
v  4.4730 2.0663 -7.7503
v  3.5099 2.0521 -6.3313
v  4.4125 2.3611 -4.5400
v  6.1125 3.6953 -5.4650
v  6.7576 1.9110 -5.9295
v  5.8738 1.2567 -7.0496
v  4.2775 0.7641 -6.9072
v  4.2881 0.9991 -4.3850
v  5.4628 2.1109 -3.9875
v  5.4017 0.8873 -5.6695
# 60 vertices

vn -0.0628 0.2208 -0.9733
vn -0.8217 0.1369 -0.5533
vn -0.9148 0.2114 0.3442
vn -0.5958 0.3894 0.7024
vn 0.4732 0.4672 -0.7469
vn 0.8267 -0.0491 -0.5605
vn 0.1128 -0.2021 -0.9728
vn -0.9797 -0.1910 0.0610
vn -0.4383 0.0444 0.8977
vn 0.8386 0.0506 0.5424
vn 0.3605 -0.0569 -0.9310
vn -0.8240 -0.0750 -0.5616
vn -0.9012 0.0411 0.4314
vn -0.2544 0.3005 0.9192
vn 0.9571 0.1292 -0.2593
vn 0.6380 -0.6790 -0.3633
vn 0.0217 -0.9581 0.2855
vn 0.6783 -0.2989 0.6713
vn 0.7589 -0.2670 0.5939
vn 0.9236 -0.3832 -0.0124
vn 0.2697 0.8771 0.3974
vn 0.7216 0.4986 0.4803
vn 0.6262 0.4884 0.6078
vn 0.4369 0.8146 -0.3814
vn 0.1075 0.9848 -0.1365
vn -0.8589 -0.0529 0.5094
vn -0.6300 -0.1629 0.7593
vn 0.2906 -0.0967 0.9520
vn 0.6131 -0.0637 -0.7874
vn -0.7150 -0.0838 -0.6940
vn -0.9365 -0.0556 0.3461
vn 0.2980 -0.0992 0.9494
vn 0.8726 0.1257 0.4720
vn 0.3515 0.1689 -0.9208
vn -0.9844 0.1333 0.1152
vn -0.6917 -0.2410 0.6808
vn 0.2138 -0.3683 0.9048
vn 0.4729 -0.2924 -0.8312
vn -0.7792 -0.2418 -0.5782
vn -0.9198 -0.1993 0.3379
vn -0.4940 0.2232 0.8403
vn 0.5085 0.1348 0.8505
vn 0.8455 0.2039 0.4935
vn 0.7165 0.5984 -0.3586
vn -0.7944 0.5049 0.3378
vn -0.9889 -0.0492 0.1404
vn -0.5769 -0.2158 0.7878
vn 0.7181 -0.1582 0.6777
vn 0.6997 -0.0122 -0.7143
vn -0.5393 0.0462 -0.8408
vn -0.8055 -0.0486 0.5906
vn 0.4811 -0.0949 0.8715
vn 0.9433 0.0654 0.3254
vn 0.4738 0.2785 -0.8354
vn -0.9714 0.1215 -0.2039
vn -0.7192 -0.6944 -0.0228
vn 0.5790 -0.8051 -0.1291
vn 0.4184 -0.2461 -0.8743
vn -0.4190 -0.2310 -0.8781
vn -0.8167 -0.3907 -0.4247
vn 0.9957 0.0923 -0.0052
vn 0.9505 0.1544 0.2695
vn 0.4987 0.1585 -0.8521
vn -0.5712 0.1711 -0.8028
vn 0.7585 0.5311 0.3777
vn -0.1855 0.0733 0.9799
vn 0.9013 -0.0072 0.4332
vn 0.6708 -0.2794 -0.6870
vn -0.4535 -0.0489 -0.8899
vn -0.9537 -0.1045 0.2821
vn 0.8441 0.0572 0.5331
vn 0.9698 -0.0012 0.2439
vn 0.4848 -0.1146 -0.8671
vn -0.2029 0.3160 -0.9268
vn 0.0470 -0.0000 0.9989
vn -0.5740 -0.2248 0.7874
vn -0.5810 -0.5456 -0.6040
vn -0.8346 -0.3182 -0.4496
vn -0.9555 -0.1942 0.2219
vn -0.5351 -0.2533 0.8060
# 80 vertex normals

vt 0.6000 1.0000 0.9233
vt 0.5000 0.6476 0.9233
vt 0.7000 0.6476 0.9233
vt 0.8000 1.0000 0.9233
vt 0.9000 0.6476 0.9233
vt 0.0000 1.0000 0.9233
vt -0.1000 0.6476 0.9233
vt 0.1000 0.6476 0.9233
vt 0.2000 1.0000 0.9233
vt 0.3000 0.6476 0.9233
vt 0.4000 1.0000 0.9233
vt 0.4000 0.3524 0.9233
vt 0.6000 0.3524 0.9233
vt 0.8000 0.3524 0.9233
vt -0.2000 0.3524 0.9233
vt 0.0000 0.3524 0.9233
vt 0.2000 0.3524 0.9233
vt 0.7000 0.0000 0.9233
vt -0.1000 0.0000 0.9233
vt 0.1000 0.0000 0.9233
vt 0.3000 0.0000 0.9233
vt 0.5000 0.0000 0.9233
# 22 texture coords

g Object004
usemtl wire_027177027
s off
f 1/1/1 2/2/1 3/3/1 
f 1/4/2 3/3/2 4/5/2 
f 1/6/3 4/7/3 5/8/3 
f 1/9/4 5/8/4 6/10/4 
f 1/11/5 6/10/5 2/2/5 
f 2/2/6 7/12/6 8/13/6 
f 3/3/7 8/13/7 9/14/7 
f 4/7/8 9/15/8 10/16/8 
f 5/8/9 10/16/9 11/17/9 
f 6/10/10 11/17/10 7/12/10 
f 8/13/11 3/3/11 2/2/11 
f 9/14/12 4/5/12 3/3/12 
f 10/16/13 5/8/13 4/7/13 
f 11/17/14 6/10/14 5/8/14 
f 7/12/15 2/2/15 6/10/15 
f 12/18/16 9/14/16 8/13/16 
f 12/19/17 10/16/17 9/15/17 
f 12/20/18 11/17/18 10/16/18 
f 12/21/19 7/12/19 11/17/19 
f 12/22/20 8/13/20 7/12/20 
f 13/1/21 14/2/21 15/3/21 
f 13/4/22 15/3/22 16/5/22 
f 13/6/23 16/7/23 17/8/23 
f 13/9/24 17/8/24 18/10/24 
f 13/11/25 18/10/25 14/2/25 
f 14/2/26 19/12/26 20/13/26 
f 15/3/27 20/13/27 21/14/27 
f 16/7/28 21/15/28 22/16/28 
f 17/8/29 22/16/29 23/17/29 
f 18/10/30 23/17/30 19/12/30 
f 20/13/31 15/3/31 14/2/31 
f 21/14/32 16/5/32 15/3/32 
f 22/16/33 17/8/33 16/7/33 
f 23/17/34 18/10/34 17/8/34 
f 19/12/35 14/2/35 18/10/35 
f 24/18/36 21/14/36 20/13/36 
f 24/19/37 22/16/37 21/15/37 
f 24/20/38 23/17/38 22/16/38 
f 24/21/39 19/12/39 23/17/39 
f 24/22/40 20/13/40 19/12/40 
f 25/1/41 26/2/41 27/3/41 
f 25/4/42 27/3/42 28/5/42 
f 25/6/43 28/7/43 29/8/43 
f 25/9/44 29/8/44 30/10/44 
f 25/11/45 30/10/45 26/2/45 
f 26/2/46 31/12/46 32/13/46 
f 27/3/47 32/13/47 33/14/47 
f 28/7/48 33/15/48 34/16/48 
f 29/8/49 34/16/49 35/17/49 
f 30/10/50 35/17/50 31/12/50 
f 32/13/51 27/3/51 26/2/51 
f 33/14/52 28/5/52 27/3/52 
f 34/16/53 29/8/53 28/7/53 
f 35/17/54 30/10/54 29/8/54 
f 31/12/55 26/2/55 30/10/55 
f 36/18/56 33/14/56 32/13/56 
f 36/19/57 34/16/57 33/15/57 
f 36/20/58 35/17/58 34/16/58 
f 36/21/59 31/12/59 35/17/59 
f 36/22/60 32/13/60 31/12/60 
f 37/1/61 38/2/61 39/3/61 
f 37/4/62 39/3/62 40/5/62 
f 37/6/63 40/7/63 41/8/63 
f 37/9/64 41/8/64 42/10/64 
f 37/11/65 42/10/65 38/2/65 
f 38/2/66 43/12/66 44/13/66 
f 39/3/67 44/13/67 45/14/67 
f 40/7/68 45/15/68 46/16/68 
f 41/8/69 46/16/69 47/17/69 
f 42/10/70 47/17/70 43/12/70 
f 44/13/71 39/3/71 38/2/71 
f 45/14/72 40/5/72 39/3/72 
f 46/16/73 41/8/73 40/7/73 
f 47/17/74 42/10/74 41/8/74 
f 43/12/75 38/2/75 42/10/75 
f 48/18/76 45/14/76 44/13/76 
f 48/19/77 46/16/77 45/15/77 
f 48/20/78 47/17/78 46/16/78 
f 48/21/79 43/12/79 47/17/79 
f 48/22/80 44/13/80 43/12/80 
f 49/1/1 50/2/1 51/3/1 
f 49/4/2 51/3/2 52/5/2 
f 49/6/3 52/7/3 53/8/3 
f 49/9/4 53/8/4 54/10/4 
f 49/11/5 54/10/5 50/2/5 
f 50/2/6 55/12/6 56/13/6 
f 51/3/7 56/13/7 57/14/7 
f 52/7/8 57/15/8 58/16/8 
f 53/8/9 58/16/9 59/17/9 
f 54/10/10 59/17/10 55/12/10 
f 56/13/11 51/3/11 50/2/11 
f 57/14/12 52/5/12 51/3/12 
f 58/16/13 53/8/13 52/7/13 
f 59/17/14 54/10/14 53/8/14 
f 55/12/15 50/2/15 54/10/15 
f 60/18/16 57/14/16 56/13/16 
f 60/19/17 58/16/17 57/15/17 
f 60/20/18 59/17/18 58/16/18 
f 60/21/19 55/12/19 59/17/19 
f 60/22/20 56/13/20 55/12/20 
# 0 polygons - 100 triangles

