# 3ds Max Wavefront OBJ Exporter v0.97b - (c)2007 guruware
# File Created: 21.07.2018 18:38:42

mtllib Stones_and_grass_opt.mtl

#
# object Cylinder081
#

v  0.0553 0.0000 -0.0000
v  0.0610 0.0218 -0.0000
v  0.0432 0.0218 -0.0432
v  0.0391 0.0000 -0.0391
v  -0.0000 0.0218 -0.0610
v  -0.0000 0.0000 -0.0553
v  -0.0432 0.0218 -0.0432
v  -0.0391 0.0000 -0.0391
v  -0.0610 0.0218 0.0000
v  -0.0553 0.0000 0.0000
v  -0.0432 0.0218 0.0432
v  -0.0391 0.0000 0.0391
v  0.0000 0.0218 0.0610
v  0.0000 0.0000 0.0553
v  0.0432 0.0218 0.0432
v  0.0391 0.0000 0.0391
v  0.0896 0.0333 -0.0000
v  0.0633 0.0333 -0.0633
v  -0.0000 0.0333 -0.0896
v  -0.0633 0.0333 -0.0633
v  -0.0896 0.0333 0.0000
v  -0.0633 0.0333 0.0633
v  0.0000 0.0333 0.0896
v  0.0633 0.0333 0.0633
v  0.1033 0.0267 -0.0000
v  0.0730 0.0267 -0.0730
v  -0.0000 0.0267 -0.1033
v  -0.0730 0.0267 -0.0730
v  -0.1033 0.0267 0.0000
v  -0.0730 0.0267 0.0730
v  0.0000 0.0267 0.1033
v  0.0730 0.0267 0.0730
v  0.0472 0.0001 0.0000
v  0.0521 0.0404 0.0000
v  0.0369 0.0404 -0.0369
v  0.0334 0.0001 -0.0334
v  -0.0000 0.0404 -0.0521
v  -0.0000 0.0001 -0.0472
v  -0.0369 0.0404 -0.0369
v  -0.0334 0.0001 -0.0334
v  -0.0521 0.0404 0.0000
v  -0.0472 0.0001 0.0000
v  -0.0369 0.0404 0.0369
v  -0.0334 0.0001 0.0334
v  0.0000 0.0404 0.0521
v  0.0000 0.0001 0.0472
v  0.0369 0.0404 0.0369
v  0.0334 0.0001 0.0334
v  0.0765 0.0512 -0.0000
v  0.0541 0.0512 -0.0541
v  -0.0000 0.0512 -0.0765
v  -0.0541 0.0512 -0.0541
v  -0.0765 0.0512 0.0000
v  -0.0541 0.0512 0.0541
v  0.0000 0.0512 0.0765
v  0.0541 0.0512 0.0541
v  0.0882 0.0439 -0.0000
v  0.0624 0.0439 -0.0624
v  -0.0000 0.0439 -0.0882
v  -0.0624 0.0439 -0.0624
v  -0.0882 0.0439 0.0000
v  -0.0624 0.0439 0.0624
v  0.0000 0.0439 0.0882
v  0.0624 0.0439 0.0624
v  0.1414 0.0020 -0.0000
v  0.1000 0.0020 -0.1000
v  -0.0000 0.0020 -0.1414
v  -0.1000 0.0020 -0.1000
v  -0.1414 0.0020 0.0000
v  -0.1000 0.0020 0.1000
v  0.0000 0.0020 0.1414
v  0.1000 0.0020 0.1000
# 72 vertices

vn -0.9670 0.2549 -0.0000
vn -0.6837 0.2549 0.6837
vn -0.0000 0.2549 0.9670
vn 0.0000 0.2549 0.9670
vn 0.6837 0.2549 0.6837
vn 0.9670 0.2549 -0.0000
vn 0.6837 0.2549 -0.6837
vn 0.0000 0.2549 -0.9670
vn -0.6837 0.2549 -0.6837
vn -0.3694 0.9166 0.1530
vn -0.1530 0.9166 0.3694
vn 0.1530 0.9166 0.3694
vn 0.3694 0.9166 0.1530
vn 0.3694 0.9166 -0.1530
vn 0.1530 0.9166 -0.3694
vn -0.1530 0.9166 -0.3694
vn -0.3694 0.9166 -0.1530
vn 0.4290 0.8856 -0.1777
vn 0.1777 0.8856 -0.4290
vn -0.1777 0.8856 -0.4290
vn -0.4290 0.8856 -0.1777
vn -0.4290 0.8856 0.1777
vn -0.1777 0.8856 0.4290
vn 0.1777 0.8856 0.4290
vn 0.4290 0.8856 0.1777
vn -0.9926 0.1211 -0.0000
vn -0.7019 0.1211 0.7019
vn -0.0000 0.1211 0.9926
vn 0.7019 0.1211 0.7019
vn 0.9926 0.1211 -0.0000
vn 0.7019 0.1211 -0.7019
vn 0.0000 0.1211 -0.9926
vn -0.7019 0.1211 -0.7019
vn -0.3986 0.9022 0.1651
vn -0.1651 0.9022 0.3986
vn 0.1651 0.9022 0.3986
vn 0.3986 0.9022 0.1651
vn 0.3986 0.9022 -0.1651
vn 0.1651 0.9022 -0.3986
vn -0.1651 0.9022 -0.3986
vn -0.3986 0.9022 -0.1651
vn 0.5177 0.8282 -0.2145
vn 0.2145 0.8282 -0.5177
vn -0.2145 0.8282 -0.5177
vn -0.5177 0.8282 -0.2145
vn -0.5177 0.8282 0.2145
vn -0.2145 0.8282 0.5177
vn 0.2145 0.8282 0.5177
vn 0.5177 0.8282 0.2145
vn 0.0000 1.0000 -0.0000
# 50 vertex normals

vt 0.3804 0.6917 -0.4886
vt 0.4122 0.6860 -0.4886
vt 0.4044 0.7553 -0.4886
vt 0.3761 0.7449 -0.4886
vt 0.3668 0.8041 -0.4886
vt 0.3476 0.7869 0.4886
vt 0.1459 0.7869 0.4886
vt 0.1054 0.7903 -0.4886
vt 0.1042 0.7001 -0.4886
vt 0.1469 0.7107 -0.4886
vt 0.1504 0.6165 -0.4886
vt 0.1806 0.6454 -0.4886
vt 0.2290 0.5715 -0.4886
vt 0.2390 0.6094 -0.4886
vt 0.3140 0.5742 -0.4886
vt 0.3034 0.6094 -0.4886
vt 0.3806 0.6182 -0.4886
vt 0.3548 0.6410 -0.4886
vt 0.4559 0.6815 -0.4886
vt 0.4410 0.7732 -0.4886
vt 0.3837 0.8358 -0.4886
vt 0.0534 0.8126 -0.4886
vt 0.0469 0.6840 -0.4886
vt 0.1122 0.5747 -0.4886
vt 0.2191 0.5193 -0.4886
vt 0.3318 0.5276 -0.4886
vt 0.4178 0.5897 -0.4886
vt 0.4763 0.6793 -0.4886
vt 0.4583 0.7816 -0.4886
vt 0.3923 0.8525 -0.4886
vt 0.0274 0.8237 -0.4886
vt 0.0200 0.6772 -0.4886
vt 0.0941 0.5553 -0.4886
vt 0.2142 0.4948 -0.4886
vt 0.3400 0.5056 -0.4886
vt 0.4351 0.5762 -0.4886
vt 0.7882 0.2234 -0.5195
vt 0.8207 0.2537 -0.5195
vt 0.7814 0.2845 -0.5195
vt 0.7614 0.2406 -0.5195
vt 0.7352 0.2916 -0.5195
vt 0.7264 0.2485 0.5195
vt 0.6728 0.1219 0.5195
vt 0.6645 0.0807 -0.5195
vt 0.7120 0.0686 -0.5195
vt 0.7113 0.1127 -0.5195
vt 0.7647 0.0750 -0.5195
vt 0.7479 0.1164 -0.5195
vt 0.8106 0.1046 -0.5195
vt 0.7786 0.1346 -0.5195
vt 0.8387 0.1518 -0.5195
vt 0.7980 0.1634 -0.5195
vt 0.8423 0.2058 -0.5195
vt 0.8015 0.1959 -0.5195
vt 0.8449 0.2733 -0.5195
vt 0.7927 0.3143 -0.5195
vt 0.7262 0.3169 -0.5195
vt 0.6466 0.0612 -0.5195
vt 0.7073 0.0364 -0.5195
vt 0.7752 0.0438 -0.5195
vt 0.8337 0.0824 -0.5195
vt 0.8681 0.1434 -0.5195
vt 0.8712 0.2120 -0.5195
vt 0.8563 0.2846 -0.5195
vt 0.7966 0.3287 -0.5195
vt 0.7211 0.3311 -0.5195
vt 0.6357 0.0492 -0.5195
vt 0.7056 0.0202 -0.5195
vt 0.7817 0.0288 -0.5195
vt 0.8468 0.0719 -0.5195
vt 0.8842 0.1405 -0.5195
vt 0.8869 0.2168 -0.5195
vt 0.4804 0.2502 0.4929
vt 0.4129 0.4129 -0.4929
vt 0.2502 0.4804 -0.4929
vt 0.0874 0.4129 -0.4929
vt 0.0200 0.2502 0.4929
vt 0.0874 0.0874 -0.4929
vt 0.2502 0.0200 -0.4929
vt 0.4129 0.0874 -0.4929
# 80 texture coords

g Cylinder081
usemtl wire_154185229
s 8
f 1/1/1 2/2/1 3/3/2 4/4/2 
f 4/4/2 3/3/2 5/5/3 6/6/4 
f 6/7/4 5/8/3 7/9/5 8/10/5 
f 8/10/5 7/9/5 9/11/6 10/12/6 
f 10/12/6 9/11/6 11/13/7 12/14/7 
f 12/14/7 11/13/7 13/15/8 14/16/8 
f 14/16/8 13/15/8 15/17/9 16/18/9 
f 16/18/9 15/17/9 2/2/1 1/1/1 
s off
f 3/3/10 2/2/10 17/19/10 18/20/10 
f 5/5/11 3/3/11 18/20/11 19/21/11 
f 7/9/12 5/8/12 19/22/12 20/23/12 
f 9/11/13 7/9/13 20/23/13 21/24/13 
f 11/13/14 9/11/14 21/24/14 22/25/14 
f 13/15/15 11/13/15 22/25/15 23/26/15 
f 15/17/16 13/15/16 23/26/16 24/27/16 
f 2/2/17 15/17/17 24/27/17 17/19/17 
f 18/20/18 17/19/18 25/28/18 26/29/18 
f 19/21/19 18/20/19 26/29/19 27/30/19 
f 20/23/20 19/22/20 27/31/20 28/32/20 
f 21/24/21 20/23/21 28/32/21 29/33/21 
f 22/25/22 21/24/22 29/33/22 30/34/22 
f 23/26/23 22/25/23 30/34/23 31/35/23 
f 24/27/24 23/26/24 31/35/24 32/36/24 
f 17/19/25 24/27/25 32/36/25 25/28/25 
s 8
f 33/37/26 34/38/26 35/39/27 36/40/27 
f 36/40/27 35/39/27 37/41/28 38/42/28 
f 38/43/28 37/44/28 39/45/29 40/46/29 
f 40/46/29 39/45/29 41/47/30 42/48/30 
f 42/48/30 41/47/30 43/49/31 44/50/31 
f 44/50/31 43/49/31 45/51/32 46/52/32 
f 46/52/32 45/51/32 47/53/33 48/54/33 
f 48/54/33 47/53/33 34/38/26 33/37/26 
s off
f 35/39/34 34/38/34 49/55/34 50/56/34 
f 37/41/35 35/39/35 50/56/35 51/57/35 
f 39/45/36 37/44/36 51/58/36 52/59/36 
f 41/47/37 39/45/37 52/59/37 53/60/37 
f 43/49/38 41/47/38 53/60/38 54/61/38 
f 45/51/39 43/49/39 54/61/39 55/62/39 
f 47/53/40 45/51/40 55/62/40 56/63/40 
f 34/38/41 47/53/41 56/63/41 49/55/41 
f 50/56/42 49/55/42 57/64/42 58/65/42 
f 51/57/43 50/56/43 58/65/43 59/66/43 
f 52/59/44 51/58/44 59/67/44 60/68/44 
f 53/60/45 52/59/45 60/68/45 61/69/45 
f 54/61/46 53/60/46 61/69/46 62/70/46 
f 55/62/47 54/61/47 62/70/47 63/71/47 
f 56/63/48 55/62/48 63/71/48 64/72/48 
f 49/55/49 56/63/49 64/72/49 57/64/49 
f 65/73/50 66/74/50 67/75/50 68/76/50 69/77/50 70/78/50 71/79/50 72/80/50 
# 49 polygons

