# 3ds Max Wavefront OBJ Exporter v0.97b - (c)2007 guruware
# File Created: 20.07.2018 21:49:43

mtllib Stones_2.mtl

#
# object GeoSphere013
#

v  0.1239 2.6555 5.4901
v  1.8958 2.1945 5.2626
v  1.6755 0.6085 4.8026
v  -0.4072 0.7343 4.3786
v  -1.0673 0.7667 5.6708
v  2.1079 3.1910 7.5416
v  2.0300 0.7657 6.7054
v  2.3974 0.1687 5.1207
v  1.5126 -1.0888 4.7759
v  -0.8518 0.0577 5.8251
v  -0.0574 1.2170 7.5890
v  1.1449 -0.4984 6.1225
v  1.7629 2.6555 -4.1340
v  0.1337 2.1945 -4.8667
v  0.0808 0.6085 -4.3594
v  1.6343 0.7343 -2.9088
v  2.8727 0.7667 -3.6650
v  1.1447 3.1910 -6.9201
v  0.7738 0.7657 -6.1667
v  -0.3681 0.1687 -5.0081
v  0.2057 -1.0888 -4.2515
v  2.7697 0.0577 -3.9092
v  3.0151 1.2170 -5.8281
v  1.2234 -0.4984 -5.2069
v  3.7042 1.9789 -1.7634
v  3.0749 1.4863 -2.6919
v  2.9907 0.9316 -1.4636
v  4.2296 0.8720 -1.1437
v  5.2327 1.3697 -1.7668
v  4.2336 1.9559 -3.2504
v  3.8085 0.7944 -3.5125
v  3.2514 0.2967 -2.6158
v  3.6643 -0.0361 -1.5855
v  5.1968 0.2757 -1.4915
v  5.1828 0.9882 -3.2032
v  4.5454 0.0100 -2.6343
v  -2.7705 1.9789 4.4849
v  -1.7486 1.4863 4.9472
v  -2.3192 0.9316 3.8562
v  -3.5425 0.8720 4.2315
v  -4.0715 1.3697 5.2872
v  -2.4441 1.9559 6.0291
v  -1.9447 0.7944 6.0302
v  -1.9388 0.2967 4.9746
v  -2.8296 -0.0361 4.3124
v  -4.1849 0.2757 5.0337
v  -3.2778 0.9882 6.4853
v  -3.0321 0.0100 5.6671
# 48 vertices

vn -0.0489 0.2845 -0.9574
vn 0.2043 0.4473 -0.8707
vn -0.7874 0.4570 -0.4137
vn -0.6883 0.4856 0.5389
vn 0.1804 0.8949 -0.4081
vn 0.9637 0.2290 0.1371
vn 0.3914 -0.0231 -0.9199
vn -0.5465 -0.6815 -0.4867
vn -0.8588 -0.1547 0.4884
vn 0.3102 -0.3188 0.8956
vn 0.4866 0.1804 -0.8548
vn 0.1993 -0.0037 -0.9799
vn -0.8389 -0.3463 -0.4198
vn -0.6610 0.7293 0.1768
vn 0.9957 -0.0000 -0.0927
vn 0.6712 -0.5939 0.4437
vn -0.2978 -0.9015 0.3140
vn -0.2953 -0.7320 0.6140
vn 0.2286 -0.5351 0.8133
vn 0.6574 -0.6422 0.3943
vn -0.4590 0.2845 0.8416
vn -0.6295 0.4473 0.6353
vn 0.4548 0.4570 0.7644
vn 0.8685 0.4856 -0.0993
vn -0.3672 0.8949 0.2535
vn -0.7497 0.2290 -0.6209
vn -0.8147 -0.0231 0.5794
vn 0.2112 -0.6815 0.7007
vn 0.9874 -0.1547 0.0328
vn 0.2040 -0.3188 -0.9256
vn -0.8618 0.1804 0.4741
vn -0.6823 -0.0037 0.7310
vn 0.4955 -0.3463 0.7966
vn 0.6558 0.7293 0.1950
vn -0.8971 -0.0000 -0.4418
vn -0.3400 -0.5939 -0.7292
vn 0.4181 -0.9015 -0.1119
vn 0.5728 -0.7320 -0.3689
vn 0.2305 -0.5351 -0.8127
vn -0.3541 -0.6422 -0.6799
vn -0.7778 0.5910 0.2136
vn -0.2112 0.3992 0.8922
vn 0.2229 0.5546 0.8017
vn 0.3679 0.9225 0.1168
vn -0.4395 0.8820 -0.1701
vn -0.7980 -0.1557 -0.5822
vn -0.8050 -0.5775 0.1361
vn 0.0383 -0.4563 0.8890
vn 0.9989 -0.0389 -0.0244
vn 0.1975 0.1465 -0.9693
vn -0.9786 -0.1539 -0.1366
vn -0.2523 -0.2918 0.9226
vn 0.4409 0.2054 0.8737
vn 0.7037 0.6802 -0.2051
vn -0.5201 0.3646 -0.7724
vn -0.2139 -0.9514 -0.2216
vn 0.1911 -0.9745 0.1176
vn 0.7282 -0.6306 -0.2685
vn 0.2551 -0.6049 -0.7543
vn -0.1865 -0.8053 -0.5628
vn 0.5513 0.5910 -0.5889
vn -0.2866 0.3992 -0.8709
vn -0.6092 0.5546 -0.5668
vn -0.3747 0.9225 0.0929
vn 0.4635 0.8820 -0.0849
vn 0.9847 -0.1557 0.0789
vn 0.6150 -0.5775 -0.5370
vn -0.4976 -0.4563 -0.7377
vn -0.8387 -0.0389 0.5432
vn 0.3386 0.1465 0.9295
vn 0.9055 -0.1539 -0.3954
vn -0.2675 -0.2918 -0.9183
vn -0.8327 0.2054 -0.5141
vn -0.4925 0.6802 0.5428
vn 0.8472 0.3646 0.3863
vn 0.2983 -0.9514 0.0770
vn -0.2244 -0.9745 -0.0003
vn -0.4803 -0.6306 0.6097
vn 0.1771 -0.6049 0.7763
vn 0.4533 -0.8053 0.3822
# 80 vertex normals

vt 0.6000 1.0000 0.9233
vt 0.5000 0.6476 0.9233
vt 0.7000 0.6476 0.9233
vt 0.8000 1.0000 0.9233
vt 0.9000 0.6476 0.9233
vt 0.0000 1.0000 0.9233
vt -0.1000 0.6476 0.9233
vt 0.1000 0.6476 0.9233
vt 0.2000 1.0000 0.9233
vt 0.3000 0.6476 0.9233
vt 0.4000 1.0000 0.9233
vt 0.4000 0.3524 0.9233
vt 0.6000 0.3524 0.9233
vt 0.8000 0.3524 0.9233
vt -0.2000 0.3524 0.9233
vt 0.0000 0.3524 0.9233
vt 0.2000 0.3524 0.9233
vt 0.7000 0.0000 0.9233
vt -0.1000 0.0000 0.9233
vt 0.1000 0.0000 0.9233
vt 0.3000 0.0000 0.9233
vt 0.5000 0.0000 0.9233
# 22 texture coords

g GeoSphere013
usemtl wire_115115115
s off
f 1/1/1 2/2/1 3/3/1 
f 1/4/2 3/3/2 4/5/2 
f 1/6/3 4/7/3 5/8/3 
f 1/9/4 5/8/4 6/10/4 
f 1/11/5 6/10/5 2/2/5 
f 2/2/6 7/12/6 8/13/6 
f 3/3/7 8/13/7 9/14/7 
f 4/7/8 9/15/8 10/16/8 
f 5/8/9 10/16/9 11/17/9 
f 6/10/10 11/17/10 7/12/10 
f 8/13/11 3/3/11 2/2/11 
f 9/14/12 4/5/12 3/3/12 
f 10/16/13 5/8/13 4/7/13 
f 11/17/14 6/10/14 5/8/14 
f 7/12/15 2/2/15 6/10/15 
f 12/18/16 9/14/16 8/13/16 
f 12/19/17 10/16/17 9/15/17 
f 12/20/18 11/17/18 10/16/18 
f 12/21/19 7/12/19 11/17/19 
f 12/22/20 8/13/20 7/12/20 
f 13/1/21 14/2/21 15/3/21 
f 13/4/22 15/3/22 16/5/22 
f 13/6/23 16/7/23 17/8/23 
f 13/9/24 17/8/24 18/10/24 
f 13/11/25 18/10/25 14/2/25 
f 14/2/26 19/12/26 20/13/26 
f 15/3/27 20/13/27 21/14/27 
f 16/7/28 21/15/28 22/16/28 
f 17/8/29 22/16/29 23/17/29 
f 18/10/30 23/17/30 19/12/30 
f 20/13/31 15/3/31 14/2/31 
f 21/14/32 16/5/32 15/3/32 
f 22/16/33 17/8/33 16/7/33 
f 23/17/34 18/10/34 17/8/34 
f 19/12/35 14/2/35 18/10/35 
f 24/18/36 21/14/36 20/13/36 
f 24/19/37 22/16/37 21/15/37 
f 24/20/38 23/17/38 22/16/38 
f 24/21/39 19/12/39 23/17/39 
f 24/22/40 20/13/40 19/12/40 
f 25/1/41 26/2/41 27/3/41 
f 25/4/42 27/3/42 28/5/42 
f 25/6/43 28/7/43 29/8/43 
f 25/9/44 29/8/44 30/10/44 
f 25/11/45 30/10/45 26/2/45 
f 26/2/46 31/12/46 32/13/46 
f 27/3/47 32/13/47 33/14/47 
f 28/7/48 33/15/48 34/16/48 
f 29/8/49 34/16/49 35/17/49 
f 30/10/50 35/17/50 31/12/50 
f 32/13/51 27/3/51 26/2/51 
f 33/14/52 28/5/52 27/3/52 
f 34/16/53 29/8/53 28/7/53 
f 35/17/54 30/10/54 29/8/54 
f 31/12/55 26/2/55 30/10/55 
f 36/18/56 33/14/56 32/13/56 
f 36/19/57 34/16/57 33/15/57 
f 36/20/58 35/17/58 34/16/58 
f 36/21/59 31/12/59 35/17/59 
f 36/22/60 32/13/60 31/12/60 
f 37/1/61 38/2/61 39/3/61 
f 37/4/62 39/3/62 40/5/62 
f 37/6/63 40/7/63 41/8/63 
f 37/9/64 41/8/64 42/10/64 
f 37/11/65 42/10/65 38/2/65 
f 38/2/66 43/12/66 44/13/66 
f 39/3/67 44/13/67 45/14/67 
f 40/7/68 45/15/68 46/16/68 
f 41/8/69 46/16/69 47/17/69 
f 42/10/70 47/17/70 43/12/70 
f 44/13/71 39/3/71 38/2/71 
f 45/14/72 40/5/72 39/3/72 
f 46/16/73 41/8/73 40/7/73 
f 47/17/74 42/10/74 41/8/74 
f 43/12/75 38/2/75 42/10/75 
f 48/18/76 45/14/76 44/13/76 
f 48/19/77 46/16/77 45/15/77 
f 48/20/78 47/17/78 46/16/78 
f 48/21/79 43/12/79 47/17/79 
f 48/22/80 44/13/80 43/12/80 
# 0 polygons - 80 triangles

