# 3ds Max Wavefront OBJ Exporter v0.97b - (c)2007 guruware
# File Created: 20.07.2018 23:22:47

mtllib Tree_3.mtl

#
# object Cylinder013
#

v  0.0394 0.0000 -0.0000
v  0.0197 0.0000 -0.0341
v  0.0123 0.4550 -0.0575
v  0.0245 0.4550 -0.0363
v  -0.0197 0.0000 -0.0341
v  -0.0123 0.4550 -0.0575
v  -0.0394 0.0000 0.0000
v  -0.0245 0.4550 -0.0363
v  -0.0197 0.0000 0.0341
v  -0.0123 0.4550 -0.0150
v  0.0197 0.0000 0.0341
v  0.0123 0.4550 -0.0150
v  0.0035 0.8917 -0.2150
v  0.0071 0.8917 -0.2088
v  -0.0035 0.8917 -0.2150
v  -0.0071 0.8917 -0.2088
v  -0.0035 0.8917 -0.2027
v  0.0035 0.8917 -0.2027
v  -0.0035 0.3839 -0.0150
v  0.0160 0.7471 0.1501
v  0.0127 0.7471 0.1468
v  -0.0150 0.3839 -0.0265
v  0.0122 0.3839 -0.0192
v  0.0206 0.7471 0.1489
v  0.0163 0.3839 -0.0349
v  0.0218 0.7471 0.1444
v  0.0048 0.3839 -0.0464
v  0.0185 0.7471 0.1411
v  -0.0108 0.3839 -0.0422
v  0.0139 0.7471 0.1423
v  -0.0562 1.2896 -0.1667
v  0.1261 1.2807 -0.2038
v  -0.0098 1.2398 -0.3134
v  0.2709 1.1745 -0.2913
v  0.1773 1.2170 -0.4076
v  0.1078 1.1245 -0.4736
v  -0.1925 1.2497 -0.3018
v  -0.0535 1.1716 -0.4627
v  -0.2523 1.1267 -0.3609
v  -0.1495 1.2425 -0.1197
v  -0.3099 1.0588 -0.1827
v  -0.2483 1.0753 -0.0310
v  0.0632 1.2282 -0.0288
v  -0.1188 1.1326 0.0521
v  0.0574 1.1383 0.0568
v  0.2347 1.1790 -0.1305
v  0.3019 1.0289 -0.1427
v  0.2657 1.0993 -0.3573
v  0.1899 0.9168 -0.0784
v  0.2280 0.9250 -0.2483
v  0.1800 0.9470 -0.4140
v  0.1686 1.0291 -0.5053
v  -0.0274 1.0207 -0.5705
v  0.0510 0.8593 -0.4860
v  -0.1266 0.9360 -0.5329
v  -0.1846 1.0965 -0.4815
v  -0.3527 0.9741 -0.2166
v  -0.2729 0.8808 -0.3325
v  -0.3315 0.8003 -0.1371
v  -0.3310 0.9055 -0.0108
v  -0.2974 0.9353 0.0644
v  -0.2529 0.8291 -0.0173
v  -0.1712 0.8658 0.0445
v  -0.1118 1.0306 0.1274
v  0.1061 1.0126 0.0141
v  0.0099 0.8868 0.0567
v  -0.0281 0.7598 -0.2381
v  -0.0877 0.7889 -0.3979
v  0.0826 0.7952 -0.3248
v  -0.1948 0.7836 -0.1988
v  -0.1085 0.8081 -0.0728
v  0.0841 0.7853 -0.1335
v  -0.0113 0.9452 0.2408
v  0.0782 0.9358 0.2286
v  0.0102 0.9222 0.1688
v  0.1470 0.8821 0.2002
v  0.0987 0.9007 0.1359
v  0.0501 0.8698 0.0930
v  -0.0792 0.9237 0.1822
v  -0.0280 0.8870 0.1002
v  -0.1163 0.8672 0.1479
v  -0.0636 0.9198 0.2717
v  -0.1412 0.8462 0.2340
v  -0.1126 0.8452 0.3118
v  0.0401 0.9157 0.3111
v  -0.0409 0.8647 0.3558
v  0.0491 0.8630 0.3601
v  0.1268 0.8841 0.2794
v  0.1593 0.8119 0.2639
v  0.1431 0.8379 0.1605
v  0.1078 0.7539 0.2971
v  0.1226 0.7561 0.2129
v  0.0976 0.7691 0.1294
v  0.0849 0.8200 0.0819
v  -0.0076 0.8195 0.0471
v  0.0305 0.7386 0.0878
v  -0.0567 0.7672 0.0674
v  -0.0901 0.8407 0.0874
v  -0.1638 0.7977 0.2027
v  -0.1281 0.7441 0.1518
v  -0.1541 0.7210 0.2456
v  -0.1547 0.7723 0.3046
v  -0.1194 0.7776 0.3596
v  -0.1138 0.7233 0.3142
v  -0.0612 0.7348 0.3563
v  -0.0222 0.8049 0.3924
v  0.0807 0.8021 0.3440
v  0.0266 0.7383 0.3572
v  -0.0078 0.6818 0.2162
v  -0.0376 0.6973 0.1351
v  0.0494 0.6999 0.1716
v  -0.0893 0.6965 0.2269
v  -0.0386 0.7021 0.2972
v  0.0515 0.6961 0.2669
# 114 vertices

vn 0.8660 -0.0116 -0.5000
vn -0.0000 -0.0513 -0.9987
vn -0.8660 -0.0116 -0.5000
vn -0.8640 0.0680 0.4988
vn 0.0000 0.1074 0.9942
vn 0.8640 0.0680 0.4988
vn 0.8547 -0.1609 -0.4935
vn 0.0000 -0.3393 -0.9407
vn -0.8547 -0.1609 -0.4935
vn -0.8436 0.2261 0.4870
vn 0.0000 0.3948 0.9188
vn 0.8436 0.2261 0.4870
vn -0.6790 -0.2732 0.6814
vn 0.2373 -0.4126 0.8795
vn 0.9569 -0.1400 0.2546
vn 0.6685 0.3211 -0.6708
vn -0.2322 0.4529 -0.8608
vn -0.9482 0.1928 -0.2523
vn -0.0203 0.9448 -0.3270
vn 0.5358 0.8349 -0.1263
vn -0.0384 0.9510 -0.3068
vn -0.2603 0.6828 -0.6827
vn 0.0318 0.9495 -0.3121
vn 0.2201 0.8612 -0.4582
vn 0.0225 0.9067 -0.4212
vn -0.4744 0.5580 -0.6808
vn -0.3940 0.9100 0.1291
vn -0.8744 0.4743 -0.1022
vn -0.7710 0.6027 0.2057
vn -0.7702 0.5870 0.2494
vn -0.1639 0.8407 0.5161
vn -0.5992 0.6214 0.5047
vn -0.1814 0.8134 0.5527
vn -0.0415 0.6905 0.7221
vn 0.1114 0.9402 0.3219
vn 0.5348 0.5643 0.6289
vn 0.4652 0.7879 0.4035
vn 0.6335 0.7642 0.1211
vn 0.9874 0.0606 -0.1464
vn 0.7383 -0.6611 0.1335
vn 0.8926 -0.3617 -0.2692
vn 0.8742 -0.3791 -0.3034
vn 0.2643 0.4516 -0.8522
vn 0.6576 -0.5176 -0.5475
vn 0.3116 -0.3176 -0.8956
vn 0.0429 -0.4471 -0.8935
vn -0.8590 0.0883 -0.5044
vn -0.7918 -0.0928 -0.6037
vn -0.8362 -0.0357 -0.5473
vn -0.8811 -0.2812 -0.3802
vn -0.8688 0.4484 0.2102
vn -0.5713 -0.6297 0.5264
vn -0.5784 -0.6357 0.5111
vn -0.2475 -0.6539 0.7150
vn 0.4495 -0.1259 0.8843
vn -0.0083 -0.4470 0.8945
vn 0.4576 -0.0494 0.8878
vn 0.6092 -0.2067 0.7656
vn 0.8534 -0.3302 -0.4033
vn 0.2377 0.4394 -0.8663
vn 0.7328 0.2869 -0.6171
vn 0.7838 0.3786 -0.4924
vn -0.4429 0.1241 -0.8879
vn -0.4018 0.8094 -0.4282
vn -0.1965 0.5475 -0.8134
vn 0.1184 0.5910 -0.7979
vn -0.9934 -0.0862 0.0758
vn -0.8447 0.4467 0.2949
vn -0.9035 0.3688 0.2182
vn -0.8717 0.4799 -0.0992
vn -0.0902 -0.4214 0.9024
vn -0.0405 0.5916 0.8052
vn -0.4960 0.4934 0.7145
vn -0.6059 0.5822 0.5421
vn 0.6236 -0.1876 0.7589
vn 0.9015 0.3877 0.1922
vn 0.6013 0.2062 0.7720
vn 0.7206 0.0445 0.6919
vn 0.1323 -0.9652 -0.2256
vn -0.1070 -0.6875 -0.7183
vn 0.2029 -0.8955 -0.3960
vn 0.6563 -0.6480 -0.3864
vn -0.1674 -0.9790 -0.1162
vn -0.3016 -0.8464 -0.4390
vn -0.5061 -0.8109 -0.2938
vn -0.5186 -0.6485 -0.5573
vn -0.0809 -0.9666 0.2433
vn 0.0485 -0.8859 0.4614
vn -0.0544 -0.9725 0.2263
vn -0.0100 -0.9707 0.2401
vn -0.0300 -0.9632 0.2671
vn 0.5223 -0.6508 0.5511
vn 0.0494 -0.8730 0.4851
vn 0.0703 -0.8798 0.4701
vn 0.2673 -0.9622 -0.0519
vn 0.7180 -0.6320 -0.2917
vn 0.6781 -0.7337 -0.0433
vn 0.7437 -0.6547 0.1351
vn 0.0618 0.9558 -0.2873
vn 0.5566 0.8103 -0.1834
vn 0.1040 0.9378 -0.3312
vn -0.0152 0.8188 -0.5738
vn -0.0299 0.9494 -0.3126
vn 0.1394 0.8474 -0.5123
vn -0.0489 0.8995 -0.4342
vn -0.4656 0.6615 -0.5879
vn -0.3824 0.9178 0.1071
vn -0.8066 0.5841 -0.0906
vn -0.7187 0.6779 0.1550
vn -0.7288 0.6269 0.2754
vn -0.1442 0.8703 0.4709
vn -0.5196 0.6437 0.5619
vn -0.1859 0.7982 0.5731
vn -0.0219 0.6786 0.7342
vn 0.1397 0.9453 0.2947
vn 0.4583 0.6457 0.6107
vn 0.4390 0.8052 0.3988
vn 0.6454 0.7499 0.1452
vn 0.9887 0.0428 -0.1437
vn 0.7757 -0.6194 0.1211
vn 0.8970 -0.3749 -0.2340
vn 0.8501 -0.4182 -0.3200
vn 0.3189 0.4136 -0.8528
vn 0.6091 -0.4540 -0.6503
vn 0.3385 -0.2910 -0.8948
vn 0.0742 -0.4201 -0.9044
vn -0.8571 0.2184 -0.4665
vn -0.7337 -0.1528 -0.6621
vn -0.8358 -0.0364 -0.5478
vn -0.9000 -0.2937 -0.3220
vn -0.7853 0.4078 0.4658
vn -0.7283 -0.5204 0.4457
vn -0.7096 -0.4936 0.5029
vn -0.4093 -0.6095 0.6790
vn 0.4250 -0.0179 0.9050
vn 0.0085 -0.4620 0.8868
vn 0.4157 -0.1674 0.8940
vn 0.5995 -0.3602 0.7148
vn 0.7990 -0.2911 -0.5262
vn 0.4046 0.4597 -0.7906
vn 0.7388 0.2828 -0.6117
vn 0.7914 0.3685 -0.4877
vn -0.4274 0.0518 -0.9026
vn -0.4419 0.7357 -0.5132
vn -0.2469 0.5525 -0.7961
vn 0.0675 0.6299 -0.7737
vn -0.9939 -0.0881 0.0669
vn -0.8355 0.4520 0.3125
vn -0.9302 0.3280 0.1648
vn -0.8633 0.4875 -0.1306
vn -0.2082 -0.3542 0.9117
vn -0.0307 0.5148 0.8568
vn -0.3909 0.3884 0.8345
vn -0.5450 0.5194 0.6582
vn 0.7067 -0.2489 0.6623
vn 0.9064 0.3598 0.2214
vn 0.6947 0.1616 0.7009
vn 0.6869 0.1704 0.7065
vn 0.1256 -0.9649 -0.2308
vn -0.0653 -0.7035 -0.7077
vn 0.2141 -0.8676 -0.4489
vn 0.5842 -0.6785 -0.4454
vn -0.1915 -0.9745 -0.1165
vn -0.4148 -0.8502 -0.3244
vn -0.4810 -0.8314 -0.2783
vn -0.4571 -0.6803 -0.5729
vn -0.1512 -0.9708 0.1861
vn -0.1517 -0.8882 0.4337
vn -0.2150 -0.9491 0.2303
vn -0.2937 -0.9339 0.2036
vn 0.0201 -0.9679 0.2504
vn 0.4934 -0.7281 0.4758
vn 0.0891 -0.8930 0.4412
vn 0.0288 -0.8697 0.4927
vn 0.2702 -0.9618 -0.0440
vn 0.6825 -0.6629 -0.3077
vn 0.6239 -0.7802 -0.0446
vn 0.6856 -0.7207 0.1027
# 178 vertex normals

vt 0.7995 0.0253 0.0000
vt 0.8365 0.0266 0.0000
vt 0.8442 0.4623 0.0000
vt 0.8208 0.4582 0.0000
vt 0.8720 0.0264 0.0000
vt 0.8682 0.4621 0.0000
vt 0.9090 0.0247 0.0000
vt 0.8915 0.4578 0.0000
vt 0.9476 0.0243 0.0000
vt 0.9146 0.4545 0.0000
vt 0.9860 0.0279 0.0000
vt 0.9380 0.4568 0.0000
vt 0.7624 0.0252 0.0000
vt 0.7977 0.4550 0.0000
vt 0.8550 0.9188 0.0000
vt 0.8474 0.9165 0.0000
vt 0.8627 0.9187 0.0000
vt 0.8703 0.9164 0.0000
vt 0.8783 0.9143 0.0000
vt 0.8867 0.9150 0.0000
vt 0.8393 0.9145 0.0000
vt 0.7820 0.5917 0.0000
vt 0.7548 0.9409 0.0000
vt 0.7489 0.9390 0.0000
vt 0.7690 0.5859 0.0000
vt 0.7962 0.5919 0.0000
vt 0.7610 0.9410 0.0000
vt 0.7287 0.5827 0.0000
vt 0.7304 0.9386 0.0000
vt 0.7244 0.9415 0.0000
vt 0.7158 0.5888 0.0000
vt 0.7421 0.5780 0.0000
vt 0.7366 0.9365 0.0000
vt 0.7563 0.5795 0.0000
vt 0.7428 0.9370 0.0000
vt 0.4048 0.5110 0.0000
vt 0.3841 0.3772 0.0000
vt 0.4391 0.3855 0.0000
vt 0.3888 0.3340 0.0000
vt 0.4132 0.3403 0.0000
vt 0.4321 0.3281 0.0000
vt 0.5025 0.3979 0.0000
vt 0.4620 0.3443 0.0000
vt 0.5222 0.3502 0.0000
vt 0.5272 0.5348 0.0000
vt 0.6074 0.3615 0.0000
vt 0.7014 0.4402 0.0000
vt 0.2999 0.5645 0.0000
vt 0.3220 0.3902 0.0000
vt 0.1149 0.4509 0.0000
vt 0.2243 0.4071 0.0000
vt 0.2902 0.3624 0.0000
vt 0.3604 0.3443 0.0000
vt 0.3616 0.3129 0.0000
vt 0.3983 0.3196 0.0000
vt 0.3349 0.2848 0.0000
vt 0.3787 0.2855 0.0000
vt 0.4138 0.2917 0.0000
vt 0.4267 0.3090 0.0000
vt 0.4586 0.3087 0.0000
vt 0.4430 0.2765 0.0000
vt 0.4774 0.2929 0.0000
vt 0.4902 0.3262 0.0000
vt 0.6041 0.3130 0.0000
vt 0.5465 0.2687 0.0000
vt 0.6326 0.2277 0.0000
vt 0.0217 0.3207 0.0000
vt 0.0930 0.3284 0.0000
vt 0.7560 0.2728 0.0000
vt 0.7244 0.1539 0.0000
vt 0.0578 0.2100 0.0000
vt 0.1532 0.2496 0.0000
vt 0.2107 0.3419 0.0000
vt 0.2983 0.3160 0.0000
vt 0.2562 0.2699 0.0000
vt 0.4228 0.1261 0.0000
vt 0.4746 0.2405 0.0000
vt 0.4131 0.2388 0.0000
vt 0.5648 0.1740 0.0000
vt 0.6044 0.0513 0.0000
vt 0.2119 0.1240 0.0000
vt 0.3401 0.2199 0.0000
vt 0.3103 0.8053 0.0000
vt 0.3349 0.7972 0.0000
vt 0.3298 0.8305 0.0000
vt 0.3540 0.7880 0.0000
vt 0.3598 0.8086 0.0000
vt 0.3795 0.8316 0.0000
vt 0.2859 0.8346 0.0000
vt 0.3569 0.9465 0.0000
vt 0.2419 0.8582 0.0000
vt 0.2904 0.7963 0.0000
vt 0.2409 0.7969 0.0000
vt 0.2681 0.7690 0.0000
vt 0.3187 0.7810 0.0000
vt 0.2966 0.7647 0.0000
vt 0.3198 0.7639 0.0000
vt 0.3402 0.7779 0.0000
vt 0.3538 0.7682 0.0000
vt 0.3686 0.7875 0.0000
vt 0.3521 0.7479 0.0000
vt 0.3737 0.7607 0.0000
vt 0.3948 0.7805 0.0000
vt 0.3945 0.8073 0.0000
vt 0.4317 0.8429 0.0000
vt 0.4310 0.7851 0.0000
vt 0.4838 0.8188 0.0000
vt 0.2081 0.9537 0.0000
vt 0.2000 0.7940 0.0000
vt 0.5197 0.9395 0.0000
vt 0.6156 0.7363 0.0000
vt 0.0954 0.8016 0.0000
vt 0.1942 0.7290 0.0000
vt 0.2408 0.7445 0.0000
vt 0.2689 0.7377 0.0000
vt 0.2472 0.7055 0.0000
vt 0.2895 0.7120 0.0000
vt 0.3038 0.7446 0.0000
vt 0.3330 0.7525 0.0000
vt 0.3268 0.7264 0.0000
vt 0.4160 0.6942 0.0000
vt 0.4711 0.7394 0.0000
vt 0.4098 0.7435 0.0000
vt 0.4922 0.5960 0.0000
vt 0.1454 0.6371 0.0000
vt 0.3163 0.6064 0.0000
vt 0.3697 0.7190 0.0000
# 127 texture coords

g Cylinder013
usemtl wire_135059008
s off
f 1/1/1 2/2/1 3/3/1 4/4/1 
f 2/2/2 5/5/2 6/6/2 3/3/2 
f 5/5/3 7/7/3 8/8/3 6/6/3 
f 7/7/4 9/9/4 10/10/4 8/8/4 
f 9/9/5 11/11/5 12/12/5 10/10/5 
f 11/13/6 1/1/6 4/4/6 12/14/6 
f 3/3/7 13/15/7 14/16/7 4/4/7 
f 6/6/8 15/17/8 13/15/8 3/3/8 
f 8/8/9 16/18/9 15/17/9 6/6/9 
f 10/10/10 17/19/10 16/18/10 8/8/10 
f 12/12/11 18/20/11 17/19/11 10/10/11 
f 4/4/12 14/16/12 18/21/12 12/14/12 
f 19/22/13 20/23/13 21/24/13 22/25/13 
f 23/26/14 24/27/14 20/23/14 19/22/14 
f 25/28/15 26/29/15 24/30/15 23/31/15 
f 27/32/16 28/33/16 26/29/16 25/28/16 
f 29/34/17 30/35/17 28/33/17 27/32/17 
f 22/25/18 21/24/18 30/35/18 29/34/18 
f 31/36/19 32/37/19 33/38/19 
f 32/37/20 34/39/20 35/40/20 
f 32/37/21 35/40/21 33/38/21 
f 33/38/22 35/40/22 36/41/22 
f 31/36/23 33/38/23 37/42/23 
f 33/38/24 36/41/24 38/43/24 
f 33/38/25 38/43/25 37/42/25 
f 37/42/26 38/43/26 39/44/26 
f 31/36/27 37/42/27 40/45/27 
f 37/42/28 39/44/28 41/46/28 
f 37/42/29 41/46/29 40/45/29 
f 40/45/30 41/46/30 42/47/30 
f 31/36/31 40/48/31 43/49/31 
f 40/48/32 42/50/32 44/51/32 
f 40/48/33 44/51/33 43/49/33 
f 43/49/34 44/51/34 45/52/34 
f 31/36/35 43/49/35 32/37/35 
f 43/49/36 45/52/36 46/53/36 
f 43/49/37 46/53/37 32/37/37 
f 32/37/38 46/53/38 34/39/38 
f 34/39/39 47/54/39 48/55/39 
f 47/54/40 49/56/40 50/57/40 
f 47/54/41 50/57/41 48/55/41 
f 48/55/42 50/57/42 51/58/42 
f 36/41/43 52/59/43 53/60/43 
f 52/59/44 51/58/44 54/61/44 
f 52/59/45 54/61/45 53/60/45 
f 53/60/46 54/61/46 55/62/46 
f 39/44/47 56/63/47 57/64/47 
f 56/63/48 55/62/48 58/65/48 
f 56/63/49 58/65/49 57/64/49 
f 57/64/50 58/65/50 59/66/50 
f 42/50/51 60/67/51 61/68/51 
f 60/69/52 59/66/52 62/70/52 
f 60/67/53 62/71/53 61/68/53 
f 61/68/54 62/71/54 63/72/54 
f 45/52/55 64/73/55 65/74/55 
f 64/73/56 63/72/56 66/75/56 
f 64/73/57 66/75/57 65/74/57 
f 65/74/58 66/75/58 49/56/58 
f 51/58/59 52/59/59 48/55/59 
f 52/59/60 36/41/60 35/40/60 
f 52/59/61 35/40/61 48/55/61 
f 48/55/62 35/40/62 34/39/62 
f 55/62/63 56/63/63 53/60/63 
f 56/63/64 39/44/64 38/43/64 
f 56/63/65 38/43/65 53/60/65 
f 53/60/66 38/43/66 36/41/66 
f 59/66/67 60/69/67 57/64/67 
f 60/69/68 42/47/68 41/46/68 
f 60/69/69 41/46/69 57/64/69 
f 57/64/70 41/46/70 39/44/70 
f 63/72/71 64/73/71 61/68/71 
f 64/73/72 45/52/72 44/51/72 
f 64/73/73 44/51/73 61/68/73 
f 61/68/74 44/51/74 42/50/74 
f 49/56/75 47/54/75 65/74/75 
f 47/54/76 34/39/76 46/53/76 
f 47/54/77 46/53/77 65/74/77 
f 65/74/78 46/53/78 45/52/78 
f 67/76/79 68/77/79 69/78/79 
f 68/77/80 55/62/80 54/61/80 
f 68/77/81 54/61/81 69/78/81 
f 69/78/82 54/61/82 51/58/82 
f 67/76/83 70/79/83 68/77/83 
f 70/79/84 59/66/84 58/65/84 
f 70/79/85 58/65/85 68/77/85 
f 68/77/86 58/65/86 55/62/86 
f 67/76/87 71/80/87 70/79/87 
f 71/81/88 63/72/88 62/71/88 
f 71/80/89 62/70/89 70/79/89 
f 70/79/90 62/70/90 59/66/90 
f 67/76/91 72/82/91 71/81/91 
f 72/82/92 49/56/92 66/75/92 
f 72/82/93 66/75/93 71/81/93 
f 71/81/94 66/75/94 63/72/94 
f 67/76/95 69/78/95 72/82/95 
f 69/78/96 51/58/96 50/57/96 
f 69/78/97 50/57/97 72/82/97 
f 72/82/98 50/57/98 49/56/98 
f 73/83/99 74/84/99 75/85/99 
f 74/84/100 76/86/100 77/87/100 
f 74/84/101 77/87/101 75/85/101 
f 75/85/102 77/87/102 78/88/102 
f 73/83/103 75/85/103 79/89/103 
f 75/85/104 78/88/104 80/90/104 
f 75/85/105 80/90/105 79/89/105 
f 79/89/106 80/90/106 81/91/106 
f 73/83/107 79/89/107 82/92/107 
f 79/89/108 81/91/108 83/93/108 
f 79/89/109 83/93/109 82/92/109 
f 82/92/110 83/93/110 84/94/110 
f 73/83/111 82/92/111 85/95/111 
f 82/92/112 84/94/112 86/96/112 
f 82/92/113 86/96/113 85/95/113 
f 85/95/114 86/96/114 87/97/114 
f 73/83/115 85/95/115 74/84/115 
f 85/95/116 87/97/116 88/98/116 
f 85/95/117 88/98/117 74/84/117 
f 74/84/118 88/98/118 76/86/118 
f 76/86/119 89/99/119 90/100/119 
f 89/99/120 91/101/120 92/102/120 
f 89/99/121 92/102/121 90/100/121 
f 90/100/122 92/102/122 93/103/122 
f 78/88/123 94/104/123 95/105/123 
f 94/104/124 93/103/124 96/106/124 
f 94/104/125 96/106/125 95/105/125 
f 95/105/126 96/106/126 97/107/126 
f 81/91/127 98/108/127 99/109/127 
f 98/110/128 97/107/128 100/111/128 
f 98/108/129 100/112/129 99/109/129 
f 99/109/130 100/112/130 101/113/130 
f 84/94/131 102/114/131 103/115/131 
f 102/114/132 101/113/132 104/116/132 
f 102/114/133 104/116/133 103/115/133 
f 103/115/134 104/116/134 105/117/134 
f 87/97/135 106/118/135 107/119/135 
f 106/118/136 105/117/136 108/120/136 
f 106/118/137 108/120/137 107/119/137 
f 107/119/138 108/120/138 91/101/138 
f 93/103/139 94/104/139 90/100/139 
f 94/104/140 78/88/140 77/87/140 
f 94/104/141 77/87/141 90/100/141 
f 90/100/142 77/87/142 76/86/142 
f 97/107/143 98/110/143 95/105/143 
f 98/108/144 81/91/144 80/90/144 
f 98/110/145 80/90/145 95/105/145 
f 95/105/146 80/90/146 78/88/146 
f 101/113/147 102/114/147 99/109/147 
f 102/114/148 84/94/148 83/93/148 
f 102/114/149 83/93/149 99/109/149 
f 99/109/150 83/93/150 81/91/150 
f 105/117/151 106/118/151 103/115/151 
f 106/118/152 87/97/152 86/96/152 
f 106/118/153 86/96/153 103/115/153 
f 103/115/154 86/96/154 84/94/154 
f 91/101/155 89/99/155 107/119/155 
f 89/99/156 76/86/156 88/98/156 
f 89/99/157 88/98/157 107/119/157 
f 107/119/158 88/98/158 87/97/158 
f 109/121/159 110/122/159 111/123/159 
f 110/122/160 97/107/160 96/106/160 
f 110/122/161 96/106/161 111/123/161 
f 111/123/162 96/106/162 93/103/162 
f 109/121/163 112/124/163 110/122/163 
f 112/125/164 101/113/164 100/112/164 
f 112/124/165 100/111/165 110/122/165 
f 110/122/166 100/111/166 97/107/166 
f 109/121/167 113/126/167 112/124/167 
f 113/126/168 105/117/168 104/116/168 
f 113/126/169 104/116/169 112/125/169 
f 112/125/170 104/116/170 101/113/170 
f 109/121/171 114/127/171 113/126/171 
f 114/127/172 91/101/172 108/120/172 
f 114/127/173 108/120/173 113/126/173 
f 113/126/174 108/120/174 105/117/174 
f 109/121/175 111/123/175 114/127/175 
f 111/123/176 93/103/176 92/102/176 
f 111/123/177 92/102/177 114/127/177 
f 114/127/178 92/102/178 91/101/178 
# 18 polygons - 160 triangles

