# 3ds Max Wavefront OBJ Exporter v0.97b - (c)2007 guruware
# File Created: 20.07.2018 23:15:48

mtllib Tree_1.mtl

#
# object Object002
#

v  0.4819 0.4001 -0.0242
v  0.2847 0.4053 -0.1764
v  0.1728 0.4465 -0.1082
v  0.2892 0.4713 -0.0148
v  0.2567 0.3677 -0.4294
v  0.0290 0.3783 -0.3141
v  0.0199 0.4465 -0.1933
v  0.1520 0.4713 -0.2530
v  -0.2038 0.3598 -0.3793
v  -0.2231 0.3400 -0.1225
v  -0.1333 0.4465 -0.0906
v  -0.1220 0.4713 -0.2436
v  -0.4391 0.3694 0.0490
v  -0.2559 0.3826 0.1706
v  -0.1431 0.4465 0.0861
v  -0.2587 0.4713 0.0114
v  -0.2776 0.3571 0.4183
v  -0.0315 0.4124 0.2722
v  -0.0007 0.4465 0.1602
v  -0.1425 0.4713 0.2308
v  0.1829 0.3666 0.3682
v  0.2519 0.3356 0.1168
v  0.1631 0.4465 0.0686
v  0.1314 0.4713 0.2215
v  0.0193 0.7810 -0.0315
v  0.0274 0.7068 -0.0191
v  -0.0119 0.7810 -0.0345
v  0.0089 0.7068 -0.0305
v  -0.0248 0.7810 -0.0089
v  -0.0084 0.7068 -0.0211
v  -0.0067 0.7810 0.0195
v  -0.0072 0.7068 -0.0004
v  0.0244 0.7810 0.0224
v  0.0112 0.7068 0.0109
v  0.0375 0.7810 -0.0030
v  0.0286 0.7068 0.0016
v  0.0540 0.0002 0.0027
v  0.0258 0.0002 -0.0462
v  0.0151 0.7566 -0.0277
v  0.0327 0.7566 0.0027
v  -0.0307 0.0002 -0.0462
v  -0.0200 0.7566 -0.0277
v  -0.0590 0.0002 0.0027
v  -0.0376 0.7566 0.0027
v  -0.0307 0.0002 0.0517
v  -0.0200 0.7566 0.0332
v  0.0258 0.0002 0.0517
v  0.0151 0.7566 0.0332
v  0.0077 1.6955 0.0027
v  0.0026 1.6955 -0.0061
v  -0.0075 1.6955 -0.0061
v  -0.0126 1.6955 0.0027
v  -0.0075 1.6955 0.0116
v  0.0026 1.6955 0.0116
v  0.2602 0.6942 -0.1791
v  0.0786 0.6593 -0.1874
v  0.0451 0.7106 -0.1114
v  0.1509 0.7353 -0.0998
v  -0.0344 0.6439 -0.3371
v  -0.1297 0.7068 -0.1868
v  -0.0795 0.7106 -0.1117
v  -0.0305 0.7353 -0.1969
v  -0.3058 0.6537 -0.1479
v  -0.2013 0.6761 0.0026
v  -0.1218 0.7106 -0.0005
v  -0.1827 0.7353 -0.0933
v  -0.2533 0.6364 0.1773
v  -0.0719 0.6267 0.1772
v  -0.0417 0.7106 0.1072
v  -0.1497 0.7353 0.1009
v  0.0337 0.7324 0.3255
v  0.1372 0.6133 0.1776
v  0.0832 0.7106 0.1077
v  0.0285 0.7353 0.1944
v  0.3151 0.6409 0.1476
v  0.2133 0.6342 -0.0077
v  0.1271 0.7106 -0.0019
v  0.1848 0.7353 0.0951
v  -0.0066 1.0413 -0.0184
v  0.0035 0.9670 -0.0108
v  -0.0236 1.0413 -0.0070
v  -0.0109 0.9670 -0.0106
v  -0.0203 1.0413 0.0149
v  -0.0161 0.9670 0.0021
v  0.0001 1.0413 0.0254
v  -0.0068 0.9670 0.0147
v  0.0172 1.0413 0.0140
v  0.0076 0.9670 0.0145
v  0.0138 1.0413 -0.0079
v  0.0128 0.9670 0.0018
v  0.2211 0.9200 0.0123
v  0.1159 0.9075 -0.0607
v  0.0672 0.9746 -0.0342
v  0.1268 0.9993 0.0103
v  0.1000 0.8986 -0.1841
v  -0.0112 0.9478 -0.1392
v  -0.0086 0.9746 -0.0806
v  0.0561 0.9993 -0.1057
v  -0.1244 0.9841 -0.1968
v  -0.1315 0.8676 -0.0743
v  -0.0803 0.9746 -0.0419
v  -0.0752 0.9993 -0.1122
v  -0.2277 0.9181 -0.0031
v  -0.1227 0.8862 0.0685
v  -0.0757 0.9746 0.0432
v  -0.1359 0.9993 -0.0011
v  -0.1081 0.8755 0.1918
v  0.0037 0.9653 0.1464
v  0.0001 0.9746 0.0897
v  -0.0649 0.9993 0.1153
v  0.1162 0.8401 0.2046
v  0.1246 0.8677 0.0821
v  0.0718 0.9746 0.0509
v  0.0665 0.9993 0.1218
v  -0.0003 1.1683 -0.0049
v  0.0024 1.0940 0.0016
v  -0.0147 1.1683 -0.0055
v  -0.0062 1.0940 -0.0036
v  -0.0214 1.1683 0.0067
v  -0.0144 1.0940 0.0009
v  -0.0137 1.1683 0.0195
v  -0.0140 1.0940 0.0106
v  0.0007 1.1683 0.0201
v  -0.0054 1.0940 0.0158
v  0.0074 1.1683 0.0078
v  0.0028 1.0940 0.0113
v  0.1744 1.1718 -0.1200
v  0.0506 1.1779 -0.1205
v  0.0251 1.2386 -0.0666
v  0.0952 1.2633 -0.0630
v  -0.0273 1.1479 -0.2174
v  -0.0919 1.1468 -0.1133
v  -0.0590 1.2386 -0.0622
v  -0.0227 1.2633 -0.1202
v  -0.2135 1.1347 -0.0958
v  -0.1492 1.2360 0.0138
v  -0.0926 1.2386 0.0128
v  -0.1287 1.2633 -0.0505
v  -0.1855 1.1190 0.1288
v  -0.0618 1.1787 0.1346
v  -0.0410 1.2386 0.0842
v  -0.1126 1.2633 0.0795
v  0.0215 1.1675 0.2321
v  0.0802 1.1522 0.1268
v  0.0428 1.2386 0.0796
v  0.0080 1.2633 0.1395
v  0.2010 1.1050 0.1034
v  0.1350 1.1815 -0.0027
v  0.0753 1.2386 0.0035
v  0.1107 1.2633 0.0664
v  -0.0190 1.4323 0.0038
v  -0.0095 1.3580 0.0050
v  -0.0301 1.4323 0.0114
v  -0.0189 1.3580 0.0055
v  -0.0284 1.4323 0.0252
v  -0.0226 1.3580 0.0140
v  -0.0156 1.4323 0.0315
v  -0.0169 1.3580 0.0219
v  -0.0046 1.4323 0.0239
v  -0.0075 1.3580 0.0214
v  -0.0063 1.4323 0.0101
v  -0.0038 1.3580 0.0129
v  0.1570 1.4027 -0.0116
v  0.0905 1.3983 -0.0571
v  0.0533 1.4726 -0.0338
v  0.0883 1.4973 -0.0043
v  0.0829 1.3669 -0.1367
v  0.0102 1.4677 -0.1049
v  0.0060 1.4726 -0.0623
v  0.0447 1.4973 -0.0763
v  -0.0620 1.4302 -0.1416
v  -0.0691 1.3856 -0.0624
v  -0.0397 1.4726 -0.0380
v  -0.0373 1.4973 -0.0805
v  -0.1328 1.4678 -0.0202
v  -0.0659 1.3904 0.0297
v  -0.0372 1.4726 0.0157
v  -0.0757 1.4973 -0.0124
v  -0.0542 1.3778 0.1094
v  0.0163 1.4219 0.0794
v  0.0109 1.4726 0.0450
v  -0.0301 1.4973 0.0615
v  0.0907 1.3681 0.1143
v  0.0937 1.4019 0.0351
v  0.0558 1.4726 0.0199
v  0.0518 1.4973 0.0657
v  -0.0021 1.7472 0.0014
# 187 vertices

vn 0.4517 0.5361 -0.7132
vn -0.4446 0.3532 -0.8232
vn -0.9715 0.2368 0.0096
vn -0.4576 0.4317 0.7773
vn 0.3673 0.4011 0.8392
vn 0.9625 0.2343 0.1366
vn 0.9867 0.1351 0.0902
vn 0.5463 0.1388 -0.8260
vn -0.4569 0.1137 -0.8822
vn -0.9720 0.1109 -0.2073
vn -0.6317 0.1135 0.7668
vn 0.3599 0.1043 0.9272
vn 0.8607 0.4846 -0.1560
vn 0.2925 0.3586 -0.8865
vn -0.5431 0.2131 -0.8121
vn -0.9241 0.3792 -0.0475
vn -0.2860 0.4722 0.8338
vn 0.3728 0.2399 0.8964
vn 0.4212 0.1413 -0.8959
vn -0.6015 0.1190 -0.7899
vn -0.9831 0.1037 0.1507
vn -0.3091 0.1179 0.9437
vn 0.6041 0.1073 0.7897
vn 0.9915 0.1273 -0.0275
vn 0.8660 0.0076 -0.5000
vn -0.0000 0.0076 -1.0000
vn -0.8660 0.0076 -0.5000
vn -0.8660 0.0076 0.5000
vn 0.0000 0.0076 1.0000
vn 0.8660 0.0076 0.5000
vn 0.0000 -1.0000 -0.0000
vn 0.0000 1.0000 -0.0000
vn 0.8660 0.0072 -0.5000
vn -0.0000 0.0072 -1.0000
vn -0.8660 0.0072 -0.5000
vn -0.8660 0.0072 0.5000
vn 0.0000 0.0072 1.0000
vn 0.8660 0.0072 0.5000
vn -0.1915 0.3823 -0.9040
vn -0.5612 0.5422 -0.6254
vn -0.7706 0.3463 0.5350
vn 0.0660 0.2280 0.9714
vn 0.9562 0.2606 0.1335
vn 0.7685 0.2544 -0.5871
vn 0.8616 0.0860 -0.5003
vn 0.0698 0.0945 -0.9931
vn -0.8652 0.0902 -0.4933
vn -0.8822 0.0708 0.4655
vn -0.1127 0.0807 0.9903
vn 0.8701 0.0958 0.4836
vn 0.7590 0.3182 -0.5681
vn -0.3387 0.5707 -0.7480
vn -0.9130 0.3540 -0.2028
vn -0.9356 0.2584 0.2407
vn 0.0274 0.2036 0.9787
vn 0.8030 0.3015 0.5141
vn -0.1293 0.0928 -0.9873
vn -0.9638 0.0886 -0.2515
vn -0.7128 0.0704 0.6978
vn 0.1656 0.0823 0.9827
vn 0.9518 0.0973 0.2908
vn 0.7370 0.0866 -0.6704
vn 0.4752 0.1899 -0.8592
vn -0.2410 0.2869 -0.9271
vn -0.9423 0.1526 0.2981
vn -0.4501 0.1529 0.8798
vn 0.0355 0.2953 0.9547
vn 0.9887 0.1293 0.0760
vn 0.9715 0.0955 0.2168
vn 0.7034 0.0924 -0.7048
vn -0.2279 0.0977 -0.9688
vn -0.9726 0.0890 -0.2149
vn -0.7041 0.0799 0.7056
vn 0.2315 0.0914 0.9685
vn 0.9787 0.1857 -0.0872
vn 0.7042 0.3725 -0.6044
vn -0.4206 0.1509 -0.8946
vn -0.9848 0.1453 0.0949
vn -0.0471 0.2458 0.9682
vn 0.4100 0.1513 0.8994
vn 0.2927 0.0928 -0.9517
vn -0.6965 0.0962 -0.7111
vn -0.9540 0.0841 0.2876
vn -0.2947 0.0819 0.9521
vn 0.6978 0.0960 0.7098
vn 0.9528 0.0949 -0.2884
vn -0.0448 0.2126 -0.9761
vn -0.8720 0.1532 -0.4649
vn -0.9451 0.3060 0.1148
vn -0.1497 0.1700 0.9740
vn 0.9083 0.1709 0.3818
vn 0.9116 0.1818 -0.3687
vn 0.9284 0.1066 -0.3560
vn 0.2036 0.1061 -0.9733
vn -0.7708 0.0925 -0.6303
vn -0.9242 0.0698 0.3755
vn -0.1836 0.0740 0.9802
vn 0.7727 0.0950 0.6277
vn 0.7410 0.1995 -0.6412
vn -0.1176 0.1536 -0.9811
vn -0.9474 0.2780 0.1585
vn -0.7683 0.1870 0.6122
vn 0.2407 0.1426 0.9601
vn 0.9103 0.2191 0.3513
vn -0.3218 0.1002 -0.9415
vn -0.9829 0.0810 -0.1655
vn -0.6513 0.0674 0.7558
vn 0.3050 0.0841 0.9486
vn 0.9852 0.1035 0.1364
vn 0.6402 0.1076 -0.7607
vn 0.4978 0.1458 -0.8550
vn 0.1325 0.2414 -0.9613
vn -0.9914 0.0930 0.0916
vn -0.3637 0.1037 0.9257
vn 0.3185 0.1311 0.9388
vn 0.9884 0.1271 0.0838
vn 0.9948 0.0659 -0.0780
vn 0.4888 0.0676 -0.8698
vn -0.4874 0.0599 -0.8711
vn -0.9958 0.0411 0.0823
vn -0.5040 0.0354 0.8630
vn 0.5110 0.0517 0.8580
vn 0.9795 0.1322 -0.1523
vn 0.2880 0.3713 -0.8827
vn -0.2073 0.1319 -0.9693
vn -0.9885 0.0923 0.1197
vn -0.3605 0.1060 0.9267
vn 0.5233 0.1180 0.8439
vn 0.5484 0.0679 -0.8335
vn -0.4462 0.0606 -0.8929
vn -0.9989 0.0417 0.0214
vn -0.5412 0.0352 0.8402
vn 0.4559 0.0508 0.8886
vn 0.9975 0.0651 -0.0273
# 134 vertex normals

vt 0.8295 0.6464 -9.2531
vt 0.8582 0.6849 -9.2531
vt 0.8408 0.7185 -9.2531
vt 0.8013 0.7099 -9.2531
vt 0.9136 0.6667 -9.2531
vt 0.9387 0.7126 -9.2531
vt 0.9064 0.7547 -9.2531
vt 0.8708 0.7420 -9.2531
vt 0.4497 0.7289 9.2531
vt 0.4919 0.6865 -9.2531
vt 0.5396 0.7507 -9.2531
vt 0.5180 0.7843 -9.2531
vt 0.5499 0.6578 -9.2531
vt 0.5961 0.6655 -9.2531
vt 0.6101 0.7172 -9.2531
vt 0.5799 0.7389 -9.2531
vt 0.6266 0.6190 -9.2531
vt 0.6768 0.6716 -9.2531
vt 0.6859 0.7030 -9.2531
vt 0.6481 0.7146 -9.2531
vt 0.7092 0.6241 -9.2531
vt 0.7671 0.6114 -9.2531
vt 0.7633 0.6942 -9.2531
vt 0.7233 0.7060 -9.2531
vt 0.7574 0.9517 -9.2531
vt 0.7679 0.9017 -9.2531
vt 0.9274 0.7861 -9.2531
vt 0.7711 0.9657 -9.2531
vt 0.7937 0.9148 -9.2531
vt 0.6850 0.9542 -9.2531
vt 0.6485 0.9159 -9.2531
vt 0.7048 0.9464 -9.2531
vt 0.6774 0.9028 -9.2531
vt 0.7245 0.9448 -9.2531
vt 0.7090 0.8948 -9.2531
vt 0.7417 0.9449 -9.2531
vt 0.7397 0.8941 -9.2531
vt 0.9904 0.7289 9.2531
vt 0.6704 0.9670 -9.2531
vt 0.1726 0.0064 -730.6226
vt 0.2077 0.0065 -730.6226
vt 0.1924 0.5047 -730.6226
vt 0.1660 0.5047 -730.6226
vt 0.2429 0.0067 730.6226
vt 0.2187 0.5048 -730.6226
vt 0.0318 0.0067 730.6226
vt 0.0671 0.0065 -730.6226
vt 0.0869 0.5048 -730.6226
vt 0.0605 0.5048 -730.6226
vt 0.1022 0.0064 -730.6226
vt 0.1132 0.5047 -730.6226
vt 0.1374 0.0064 -730.6226
vt 0.1396 0.5047 -730.6226
vt 0.9475 0.6347 0.1194
vt 0.9602 0.6325 0.1194
vt 0.9685 0.6424 -0.1194
vt 0.9641 0.6545 0.1194
vt 0.9514 0.6568 0.1194
vt 0.9431 0.6469 -0.1194
vt 0.9567 0.6145 0.0039
vt 0.9575 0.6124 -0.0039
vt 0.9598 0.6120 -0.0039
vt 0.9613 0.6137 0.0039
vt 0.9605 0.6159 -0.0039
vt 0.9582 0.6163 -0.0039
vt 0.1839 1.0034 -730.6226
vt 0.1576 1.0034 -730.6226
vt 0.2102 1.0034 -730.6226
vt 0.0787 1.0033 -730.6226
vt 0.0523 1.0033 -730.6226
vt 0.1050 1.0033 -730.6226
vt 0.1313 1.0033 -730.6226
vt 0.6467 0.0481 -6.7267
vt 0.6955 0.0588 -6.7267
vt 0.6674 0.0886 -6.7267
vt 0.6248 0.0868 -6.7267
vt 0.7465 0.0584 -6.7267
vt 0.7352 0.1103 -6.7267
vt 0.7236 0.1238 -6.7267
vt 0.6935 0.1147 -6.7267
vt 0.2646 0.0892 6.7267
vt 0.3200 0.0896 -6.7267
vt 0.3436 0.1097 -6.7267
vt 0.3210 0.1327 -6.7267
vt 0.3176 0.0521 -6.7267
vt 0.3495 0.0319 -6.7267
vt 0.4099 0.0763 -6.7267
vt 0.3836 0.1041 -6.7267
vt 0.4451 0.0295 -6.7267
vt 0.5308 -0.0089 -6.7267
vt 0.5032 0.0583 -6.7267
vt 0.4558 0.0592 -6.7267
vt 0.5680 0.0060 -6.7267
vt 0.6078 0.0180 -6.7267
vt 0.5895 0.0678 -6.7267
vt 0.5436 0.0756 -6.7267
vt 0.5595 0.3122 -6.7267
vt 0.5743 0.2667 -6.7267
vt 0.7490 0.1388 -6.7267
vt 0.5739 0.3241 -6.7267
vt 0.6009 0.2742 -6.7267
vt 0.5041 0.3135 -6.7267
vt 0.4648 0.2722 -6.7267
vt 0.5132 0.3021 -6.7267
vt 0.4909 0.2632 -6.7267
vt 0.5291 0.3129 -6.7267
vt 0.5160 0.2611 -6.7267
vt 0.5452 0.3101 -6.7267
vt 0.5487 0.2631 -6.7267
vt 0.8032 0.0892 6.7267
vt 0.4897 0.3230 -6.7267
vt 0.9006 0.4046 -4.5404
vt 0.9296 0.4085 -4.5404
vt 0.9145 0.4568 -4.5404
vt 0.8902 0.4677 -4.5404
vt 0.9578 0.4080 -4.5404
vt 0.9605 0.4519 -4.5404
vt 0.9516 0.4733 -4.5404
vt 0.9281 0.4784 -4.5404
vt 0.7236 0.4827 4.5404
vt 0.7226 0.3962 -4.5404
vt 0.7572 0.4662 -4.5404
vt 0.7468 0.4886 -4.5404
vt 0.7631 0.4134 -4.5404
vt 0.7904 0.3909 -4.5404
vt 0.7973 0.4550 -4.5404
vt 0.7806 0.4748 -4.5404
vt 0.8159 0.3785 -4.5404
vt 0.8350 0.4454 -4.5404
vt 0.8351 0.4590 -4.5404
vt 0.8177 0.4689 -4.5404
vt 0.8431 0.3482 -4.5404
vt 0.8699 0.3698 -4.5404
vt 0.8723 0.4498 -4.5404
vt 0.8539 0.4666 -4.5404
vt 0.8840 0.6022 -4.5404
vt 0.8904 0.5469 -4.5404
vt 0.9637 0.4939 -4.5404
vt 0.8992 0.6127 -4.5404
vt 0.9135 0.5565 -4.5404
vt 0.8168 0.5960 -4.5404
vt 0.7904 0.5507 -4.5404
vt 0.8326 0.5943 -4.5404
vt 0.8143 0.5438 -4.5404
vt 0.8508 0.5952 -4.5404
vt 0.8386 0.5420 -4.5404
vt 0.8697 0.5957 -4.5404
vt 0.8656 0.5421 -4.5404
vt 0.9879 0.4827 4.5404
vt 0.8005 0.6045 -4.5404
vt 0.5718 0.3796 -4.9307
vt 0.6097 0.3940 -4.9307
vt 0.5938 0.4420 -4.9307
vt 0.5607 0.4551 -4.9307
vt 0.6552 0.3738 -4.9307
vt 0.6931 0.3867 -4.9307
vt 0.6520 0.4540 -4.9307
vt 0.6172 0.4634 -4.9307
vt 0.2986 0.3870 4.9307
vt 0.3588 0.4605 -4.9307
vt 0.3658 0.4717 -4.9307
vt 0.3429 0.4849 -4.9307
vt 0.3325 0.3685 -4.9307
vt 0.3887 0.4038 -4.9307
vt 0.4125 0.4485 -4.9307
vt 0.3943 0.4715 -4.9307
vt 0.4228 0.3824 -4.9307
vt 0.4638 0.3707 -4.9307
vt 0.4730 0.4390 -4.9307
vt 0.4483 0.4591 -4.9307
vt 0.4956 0.3294 -4.9307
vt 0.5309 0.3912 -4.9307
vt 0.5326 0.4375 -4.9307
vt 0.5034 0.4545 -4.9307
vt 0.5620 0.5947 -4.9307
vt 0.5660 0.5374 -4.9307
vt 0.6682 0.4775 -4.9307
vt 0.5885 0.6018 -4.9307
vt 0.6033 0.5441 -4.9307
vt 0.4598 0.5971 -4.9307
vt 0.4158 0.5505 -4.9307
vt 0.4845 0.5930 -4.9307
vt 0.4504 0.5412 -4.9307
vt 0.5128 0.5922 -4.9307
vt 0.4889 0.5356 -4.9307
vt 0.5384 0.5914 -4.9307
vt 0.5291 0.5346 -4.9307
vt 0.7379 0.3870 4.9307
vt 0.4361 0.6090 -4.9307
vt 0.3365 0.9647 -4.9788
vt 0.3108 0.9613 -4.9788
vt 0.3315 0.9027 -4.9788
vt 0.3535 0.8860 -4.9788
vt 0.2804 0.9821 -4.9788
vt 0.2995 0.8984 -4.9788
vt 0.3033 0.8869 -4.9788
vt 0.3224 0.8796 -4.9788
vt 0.5128 0.9249 4.9788
vt 0.5040 0.9549 -4.9788
vt 0.4760 0.9019 -4.9788
vt 0.4839 0.8809 -4.9788
vt 0.4599 0.9141 -4.9788
vt 0.4417 0.9681 -4.9788
vt 0.4355 0.9081 -4.9788
vt 0.4521 0.8859 -4.9788
vt 0.4205 0.9802 -4.9788
vt 0.4013 0.9477 -4.9788
vt 0.4020 0.9081 -4.9788
vt 0.4171 0.8892 -4.9788
vt 0.3813 0.9935 -4.9788
vt 0.3614 0.9649 -4.9788
vt 0.3664 0.9076 -4.9788
vt 0.3848 0.8888 -4.9788
vt 0.3978 0.6643 -4.9788
vt 0.2915 0.8724 -4.9788
vt 0.2697 0.9249 4.9788
# 216 texture coords

g Object002
usemtl wire_027177027
s off
f 1/1/1 2/2/1 3/3/1 4/4/1 
f 5/5/2 6/6/2 7/7/2 8/8/2 
f 9/9/3 10/10/3 11/11/3 12/12/3 
f 13/13/4 14/14/4 15/15/4 16/16/4 
f 17/17/5 18/18/5 19/19/5 20/20/5 
f 21/21/6 22/22/6 23/23/6 24/24/6 
f 8/8/7 25/25/7 26/26/7 3/3/7 
f 12/27/8 27/28/8 28/29/8 7/7/8 
f 16/16/9 29/30/9 30/31/9 11/11/9 
f 20/20/10 31/32/10 32/33/10 15/15/10 
f 24/24/11 33/34/11 34/35/11 19/19/11 
f 4/4/12 35/36/12 36/37/12 23/23/12 
f 2/2/13 5/5/13 8/8/13 3/3/13 
f 6/6/14 9/38/14 12/27/14 7/7/14 
f 10/10/15 13/13/15 16/16/15 11/11/15 
f 14/14/16 17/17/16 20/20/16 15/15/16 
f 18/18/17 21/21/17 24/24/17 19/19/17 
f 22/22/18 1/1/18 4/4/18 23/23/18 
f 26/26/19 35/36/19 4/4/19 3/3/19 
f 28/29/20 25/25/20 8/8/20 7/7/20 
f 30/31/21 27/39/21 12/12/21 11/11/21 
f 32/33/22 29/30/22 16/16/22 15/15/22 
f 34/35/23 31/32/23 20/20/23 19/19/23 
f 36/37/24 33/34/24 24/24/24 23/23/24 
f 37/40/25 38/41/25 39/42/25 40/43/25 
f 38/41/26 41/44/26 42/45/26 39/42/26 
f 41/46/27 43/47/27 44/48/27 42/49/27 
f 43/47/28 45/50/28 46/51/28 44/48/28 
f 45/50/29 47/52/29 48/53/29 46/51/29 
f 47/52/30 37/40/30 40/43/30 48/53/30 
f 47/54/31 45/55/31 43/56/31 41/57/31 38/58/31 37/59/31 
f 49/60/32 50/61/32 51/62/32 52/63/32 53/64/32 54/65/32 
f 39/42/33 50/66/33 49/67/33 40/43/33 
f 42/45/34 51/68/34 50/66/34 39/42/34 
f 44/48/35 52/69/35 51/70/35 42/49/35 
f 46/51/36 53/71/36 52/69/36 44/48/36 
f 48/53/37 54/72/37 53/71/37 46/51/37 
f 40/43/38 49/67/38 54/72/38 48/53/38 
f 55/73/39 56/74/39 57/75/39 58/76/39 
f 59/77/40 60/78/40 61/79/40 62/80/40 
f 63/81/41 64/82/41 65/83/41 66/84/41 
f 67/85/42 68/86/42 69/87/42 70/88/42 
f 71/89/43 72/90/43 73/91/43 74/92/43 
f 75/93/44 76/94/44 77/95/44 78/96/44 
f 62/80/45 79/97/45 80/98/45 57/75/45 
f 66/99/46 81/100/46 82/101/46 61/79/46 
f 70/88/47 83/102/47 84/103/47 65/83/47 
f 74/92/48 85/104/48 86/105/48 69/87/48 
f 78/96/49 87/106/49 88/107/49 73/91/49 
f 58/76/50 89/108/50 90/109/50 77/95/50 
f 56/74/51 59/77/51 62/80/51 57/75/51 
f 60/78/52 63/110/52 66/99/52 61/79/52 
f 64/82/53 67/85/53 70/88/53 65/83/53 
f 68/86/54 71/89/54 74/92/54 69/87/54 
f 72/90/55 75/93/55 78/96/55 73/91/55 
f 76/94/56 55/73/56 58/76/56 77/95/56 
f 80/98/57 89/108/57 58/76/57 57/75/57 
f 82/101/58 79/97/58 62/80/58 61/79/58 
f 84/103/59 81/111/59 66/84/59 65/83/59 
f 86/105/60 83/102/60 70/88/60 69/87/60 
f 88/107/61 85/104/61 74/92/61 73/91/61 
f 90/109/62 87/106/62 78/96/62 77/95/62 
f 91/112/63 92/113/63 93/114/63 94/115/63 
f 95/116/64 96/117/64 97/118/64 98/119/64 
f 99/120/65 100/121/65 101/122/65 102/123/65 
f 103/124/66 104/125/66 105/126/66 106/127/66 
f 107/128/67 108/129/67 109/130/67 110/131/67 
f 111/132/68 112/133/68 113/134/68 114/135/68 
f 98/119/69 115/136/69 116/137/69 93/114/69 
f 102/138/70 117/139/70 118/140/70 97/118/70 
f 106/127/71 119/141/71 120/142/71 101/122/71 
f 110/131/72 121/143/72 122/144/72 105/126/72 
f 114/135/73 123/145/73 124/146/73 109/130/73 
f 94/115/74 125/147/74 126/148/74 113/134/74 
f 92/113/75 95/116/75 98/119/75 93/114/75 
f 96/117/76 99/149/76 102/138/76 97/118/76 
f 100/121/77 103/124/77 106/127/77 101/122/77 
f 104/125/78 107/128/78 110/131/78 105/126/78 
f 108/129/79 111/132/79 114/135/79 109/130/79 
f 112/133/80 91/112/80 94/115/80 113/134/80 
f 116/137/81 125/147/81 94/115/81 93/114/81 
f 118/140/82 115/136/82 98/119/82 97/118/82 
f 120/142/83 117/150/83 102/123/83 101/122/83 
f 122/144/84 119/141/84 106/127/84 105/126/84 
f 124/146/85 121/143/85 110/131/85 109/130/85 
f 126/148/86 123/145/86 114/135/86 113/134/86 
f 127/151/87 128/152/87 129/153/87 130/154/87 
f 131/155/88 132/156/88 133/157/88 134/158/88 
f 135/159/89 136/160/89 137/161/89 138/162/89 
f 139/163/90 140/164/90 141/165/90 142/166/90 
f 143/167/91 144/168/91 145/169/91 146/170/91 
f 147/171/92 148/172/92 149/173/92 150/174/92 
f 134/158/93 151/175/93 152/176/93 129/153/93 
f 138/177/94 153/178/94 154/179/94 133/157/94 
f 142/166/95 155/180/95 156/181/95 137/161/95 
f 146/170/96 157/182/96 158/183/96 141/165/96 
f 150/174/97 159/184/97 160/185/97 145/169/97 
f 130/154/98 161/186/98 162/187/98 149/173/98 
f 128/152/99 131/155/99 134/158/99 129/153/99 
f 132/156/100 135/188/100 138/177/100 133/157/100 
f 136/160/101 139/163/101 142/166/101 137/161/101 
f 140/164/102 143/167/102 146/170/102 141/165/102 
f 144/168/103 147/171/103 150/174/103 145/169/103 
f 148/172/104 127/151/104 130/154/104 149/173/104 
f 152/176/105 161/186/105 130/154/105 129/153/105 
f 154/179/106 151/175/106 134/158/106 133/157/106 
f 156/181/107 153/189/107 138/162/107 137/161/107 
f 158/183/108 155/180/108 142/166/108 141/165/108 
f 160/185/109 157/182/109 146/170/109 145/169/109 
f 162/187/110 159/184/110 150/174/110 149/173/110 
f 163/190/111 164/191/111 165/192/111 166/193/111 
f 167/194/112 168/195/112 169/196/112 170/197/112 
f 171/198/113 172/199/113 173/200/113 174/201/113 
f 175/202/114 176/203/114 177/204/114 178/205/114 
f 179/206/115 180/207/115 181/208/115 182/209/115 
f 183/210/116 184/211/116 185/212/116 186/213/116 
f 170/197/117 187/214/117 165/192/117 
f 174/215/118 187/214/118 169/196/118 
f 178/205/119 187/214/119 173/200/119 
f 182/209/120 187/214/120 177/204/120 
f 186/213/121 187/214/121 181/208/121 
f 166/193/122 187/214/122 185/212/122 
f 164/191/123 167/194/123 170/197/123 165/192/123 
f 168/195/124 171/216/124 174/215/124 169/196/124 
f 172/199/125 175/202/125 178/205/125 173/200/125 
f 176/203/126 179/206/126 182/209/126 177/204/126 
f 180/207/127 183/210/127 186/213/127 181/208/127 
f 184/211/128 163/190/128 166/193/128 185/212/128 
f 187/214/129 166/193/129 165/192/129 
f 187/214/130 170/197/130 169/196/130 
f 187/214/131 174/201/131 173/200/131 
f 187/214/132 178/205/132 177/204/132 
f 187/214/133 182/209/133 181/208/133 
f 187/214/134 186/213/134 185/212/134 
# 122 polygons - 12 triangles

