# 3ds Max Wavefront OBJ Exporter v0.97b - (c)2007 guruware
# File Created: 20.07.2018 23:21:57

mtllib Tree_3_extra_crisp.mtl

#
# object Cylinder028
#

v  0.0394 0.0000 -0.0000
v  0.0197 0.0000 -0.0341
v  0.0123 0.4550 -0.0575
v  0.0245 0.4550 -0.0363
v  -0.0197 0.0000 -0.0341
v  -0.0123 0.4550 -0.0575
v  -0.0394 0.0000 -0.0000
v  -0.0245 0.4550 -0.0363
v  -0.0197 0.0000 0.0341
v  -0.0123 0.4550 -0.0150
v  0.0197 0.0000 0.0341
v  0.0123 0.4550 -0.0150
v  0.0071 0.8917 -0.2088
v  0.0035 0.8917 -0.2150
v  -0.0035 0.8917 -0.2150
v  -0.0071 0.8917 -0.2088
v  -0.0035 0.8917 -0.2027
v  0.0035 0.8917 -0.2027
v  0.0127 0.7471 0.1468
v  0.0160 0.7471 0.1501
v  0.0206 0.7471 0.1489
v  0.0218 0.7471 0.1444
v  0.0185 0.7471 0.1411
v  0.0139 0.7471 0.1423
v  -0.0035 0.3839 -0.0150
v  -0.0150 0.3839 -0.0265
v  0.0122 0.3839 -0.0192
v  0.0163 0.3839 -0.0349
v  0.0048 0.3839 -0.0464
v  -0.0108 0.3839 -0.0422
# 30 vertices

vn 0.8660 -0.0116 -0.5000
vn -0.0000 -0.0513 -0.9987
vn -0.8660 -0.0116 -0.5000
vn -0.8640 0.0680 0.4988
vn 0.0000 0.1074 0.9942
vn 0.8640 0.0680 0.4988
vn 0.0000 -1.0000 -0.0000
vn 0.0000 1.0000 0.0000
vn 0.8547 -0.1609 -0.4935
vn 0.0000 -0.3393 -0.9407
vn -0.8547 -0.1609 -0.4935
vn -0.8436 0.2261 0.4870
vn 0.0000 0.3948 0.9188
vn 0.8436 0.2261 0.4870
vn 0.0000 1.0000 -0.0000
vn -0.6790 -0.2732 0.6814
vn 0.2373 -0.4126 0.8795
vn 0.9569 -0.1400 0.2546
vn 0.6685 0.3211 -0.6708
vn -0.2322 0.4529 -0.8608
vn -0.9482 0.1928 -0.2523
# 21 vertex normals

vt 0.7500 0.0000 1.0000
vt 0.9167 0.0000 1.0000
vt 0.9167 0.5000 1.0000
vt 0.7500 0.5000 1.0000
vt 1.0833 0.0000 1.0000
vt 1.0833 0.5000 1.0000
vt 0.0833 0.0000 1.0000
vt 0.2500 0.0000 1.0000
vt 0.2500 0.5000 1.0000
vt 0.0833 0.5000 1.0000
vt 0.4167 0.0000 1.0000
vt 0.4167 0.5000 1.0000
vt 0.5833 0.0000 1.0000
vt 0.5833 0.5000 1.0000
vt 0.9330 0.7500 -0.2500
vt 0.9330 0.2500 -0.2500
vt 0.5000 0.0000 -0.2500
vt 0.0670 0.2500 -0.2500
vt 0.0670 0.7500 -0.2500
vt 0.5000 1.0000 -0.2500
vt 0.5000 1.0000 0.2500
vt 0.0670 0.7500 0.2500
vt 0.0670 0.2500 0.2500
vt 0.5000 0.0000 0.2500
vt 0.9330 0.2500 0.2500
vt 0.9330 0.7500 0.2500
vt 0.9167 1.0000 1.0000
vt 0.7500 1.0000 1.0000
vt 1.0833 1.0000 1.0000
vt 0.2500 1.0000 1.0000
vt 0.0833 1.0000 1.0000
vt 0.4167 1.0000 1.0000
vt 0.5833 1.0000 1.0000
# 33 texture coords

g Cylinder028
usemtl wire_003003003
s off
f 1/1/1 2/2/1 3/3/1 4/4/1 
f 2/2/2 5/5/2 6/6/2 3/3/2 
f 5/7/3 7/8/3 8/9/3 6/10/3 
f 7/8/4 9/11/4 10/12/4 8/9/4 
f 9/11/5 11/13/5 12/14/5 10/12/5 
f 11/13/6 1/1/6 4/4/6 12/14/6 
f 11/15/7 9/16/7 7/17/7 5/18/7 2/19/7 1/20/7 
f 13/21/8 14/22/8 15/23/8 16/24/8 17/25/8 18/26/8 
f 3/3/9 14/27/9 13/28/9 4/4/9 
f 6/6/10 15/29/10 14/27/10 3/3/10 
f 8/9/11 16/30/11 15/31/11 6/10/11 
f 10/12/12 17/32/12 16/30/12 8/9/12 
f 12/14/13 18/33/13 17/32/13 10/12/13 
f 4/4/14 13/28/14 18/33/14 12/14/14 
f 19/21/15 20/22/15 21/23/15 22/24/15 23/25/15 24/26/15 
f 25/3/16 20/27/16 19/28/16 26/4/16 
f 27/6/17 21/29/17 20/27/17 25/3/17 
f 28/9/18 22/30/18 21/31/18 27/10/18 
f 29/12/19 23/32/19 22/30/19 28/9/19 
f 30/14/20 24/33/20 23/32/20 29/12/20 
f 26/4/21 19/28/21 24/33/21 30/14/21 
# 21 polygons

#
# object GeoSphere009
#

v  -0.0035 0.1843 -0.0112
v  -0.0980 -0.0000 -0.1984
v  -0.1091 -0.0000 0.0984
v  -0.0354 -0.0000 0.2584
v  0.2081 -0.0000 -0.1450
v  0.1850 -0.0000 -0.1719
# 6 vertices

vn -0.8755 0.4821 -0.0330
vn -0.7197 0.6098 0.3319
vn 0.7315 0.5195 0.4416
vn 0.4526 0.8024 -0.3890
vn 0.0672 0.6940 -0.7169
# 5 vertex normals

vt 0.6000 1.0000 33.3394
vt 0.5000 0.6476 33.3394
vt 0.7000 0.6476 33.3394
vt 0.8000 1.0000 33.3394
vt 0.9000 0.6476 33.3394
vt 0.0000 1.0000 33.3394
vt -0.1000 0.6476 33.3394
vt 0.1000 0.6476 33.3394
vt 0.2000 1.0000 33.3394
vt 0.3000 0.6476 33.3394
vt 0.4000 1.0000 33.3394
# 11 texture coords

g GeoSphere009
usemtl wire_115115115
s off
f 31/34/22 32/35/22 33/36/22 
f 31/37/23 33/36/23 34/38/23 
f 31/39/24 34/40/24 35/41/24 
f 31/42/25 35/41/25 36/43/25 
f 31/44/26 36/43/26 32/35/26 
# 0 polygons - 5 triangles

