# Blender 3.4.1
# www.blender.org
mtllib points_shroom_fixed.mtl
o points_shroom
v -0.000034 0.048000 -0.013345
v -0.000034 0.028700 -0.020645
v -0.010434 0.028700 -0.017845
v -0.006834 0.048000 -0.011545
v -0.018134 0.028700 -0.010245
v -0.011734 0.048000 -0.006545
v -0.020934 0.028700 0.000255
v -0.013634 0.048000 0.000255
v -0.018134 0.028700 0.010755
v -0.011734 0.048000 0.007055
v -0.010434 0.028700 0.018355
v -0.006834 0.048000 0.012055
v -0.000034 0.028700 0.021155
v -0.000034 0.048000 0.013855
v 0.010466 0.028700 0.018355
v 0.006766 0.048000 0.012055
v 0.018166 0.028700 0.010755
v 0.011766 0.048000 0.007055
v 0.020966 0.028700 0.000255
v 0.013566 0.048000 0.000255
v 0.018166 0.028700 -0.010245
v 0.011766 0.048000 -0.006545
v 0.010466 0.028700 -0.017845
v 0.006766 0.048000 -0.011545
v -0.000034 0.005900 -0.026845
v -0.013534 0.005900 -0.023245
v -0.023434 0.005900 -0.013245
v -0.027134 0.005900 0.000255
v -0.023434 0.005900 0.013855
v -0.013534 0.005900 0.023755
v -0.000034 0.005900 0.027355
v 0.013566 0.005900 0.023755
v 0.023466 0.005900 0.013855
v 0.027066 0.005900 0.000255
v 0.023466 0.005900 -0.013245
v 0.013566 0.005900 -0.023245
v -0.000034 -0.012900 -0.025145
v -0.012734 -0.012900 -0.021745
v -0.021934 -0.012900 -0.012445
v -0.025334 -0.012900 0.000255
v -0.021934 -0.012900 0.012955
v -0.012734 -0.012900 0.022255
v -0.000034 -0.012900 0.025655
v 0.012666 -0.012900 0.022255
v 0.021966 -0.012900 0.012955
v 0.025366 -0.012900 0.000255
v 0.021966 -0.012900 -0.012445
v 0.012666 -0.012900 -0.021745
v -0.000034 -0.024100 -0.013345
v -0.006734 -0.024100 -0.011445
v -0.011734 -0.024100 -0.006545
v -0.013534 -0.024100 0.000255
v -0.011734 -0.024100 0.007055
v -0.006734 -0.024100 0.012055
v -0.000034 -0.024100 0.013855
v 0.006766 -0.024100 0.012055
v 0.011766 -0.024100 0.007055
v 0.013566 -0.024100 0.000255
v 0.011766 -0.024100 -0.006545
v 0.006766 -0.024100 -0.011445
v -0.000034 -0.027700 0.000255
v -0.000034 0.094000 -0.000345
v -0.000034 0.085000 -0.014345
v -0.010934 0.085000 -0.009145
v -0.000034 0.073200 -0.028645
v -0.022034 0.073200 -0.017945
v -0.000034 0.066000 -0.048345
v -0.037534 0.066000 -0.030245
v -0.000034 0.053000 -0.057945
v -0.045034 0.053000 -0.036245
v -0.000034 0.046800 -0.041545
v -0.032234 0.046800 -0.026045
v -0.000034 0.048100 0.002255
v 0.002066 0.048100 0.001255
v -0.013634 0.085000 0.002755
v -0.027534 0.073200 0.005855
v -0.046734 0.066000 0.010255
v -0.056134 0.053000 0.012455
v -0.040134 0.046800 0.008755
v 0.002566 0.048100 -0.000945
v -0.006034 0.085000 0.012255
v -0.012234 0.073200 0.025055
v -0.020834 0.066000 0.042855
v -0.025034 0.053000 0.051555
v -0.017834 0.046800 0.036755
v 0.001166 0.048100 -0.002745
v 0.006066 0.085000 0.012255
v 0.012266 0.073200 0.025055
v 0.020866 0.066000 0.042855
v 0.024966 0.053000 0.051555
v 0.017866 0.046800 0.036755
v -0.001134 0.048100 -0.002745
v 0.013666 0.085000 0.002755
v 0.027566 0.073200 0.005855
v 0.046766 0.066000 0.010255
v 0.056166 0.053000 0.012455
v 0.040166 0.046800 0.008755
v -0.002534 0.048100 -0.000945
v 0.010966 0.085000 -0.009145
v 0.022066 0.073200 -0.017945
v 0.037566 0.066000 -0.030245
v 0.045066 0.053000 -0.036245
v 0.032166 0.046800 -0.026045
v -0.002034 0.048100 0.001255
vn -0.0000 0.3544 -0.9351
vn -0.0000 0.3062 -0.9520
vn -0.4760 0.3062 -0.8244
vn -0.4675 0.3545 -0.8098
vn -0.8244 0.3062 -0.4760
vn -0.8098 0.3545 -0.4675
vn -0.9520 0.3061 0.0001
vn -0.9351 0.3545 -0.0000
vn -0.8244 0.3062 0.4760
vn -0.8098 0.3545 0.4675
vn -0.4759 0.3062 0.8245
vn -0.4675 0.3545 0.8098
vn -0.0001 0.3062 0.9520
vn -0.0000 0.3544 0.9351
vn 0.4760 0.3062 0.8244
vn 0.4675 0.3545 0.8098
vn 0.8244 0.3062 0.4760
vn 0.8098 0.3545 0.4675
vn 0.9520 0.3062 0.0002
vn 0.9351 0.3545 -0.0000
vn 0.8242 0.3063 -0.4763
vn 0.8098 0.3545 -0.4675
vn 0.4760 0.3062 -0.8244
vn 0.4675 0.3545 -0.8098
vn -0.0000 0.0842 -0.9965
vn -0.4982 0.0843 -0.8629
vn -0.8630 0.0841 -0.4981
vn -0.9965 0.0841 -0.0000
vn -0.8630 0.0842 0.4982
vn -0.4982 0.0842 0.8630
vn -0.0000 0.0842 0.9964
vn 0.4981 0.0842 0.8630
vn 0.8630 0.0842 0.4982
vn 0.9964 0.0842 -0.0000
vn 0.8630 0.0842 -0.4982
vn 0.4980 0.0842 -0.8631
vn -0.0000 -0.4153 -0.9097
vn -0.4548 -0.4153 -0.7878
vn -0.7880 -0.4154 -0.4543
vn -0.9097 -0.4153 -0.0000
vn -0.7878 -0.4153 0.4548
vn -0.4548 -0.4153 0.7878
vn -0.0000 -0.4153 0.9097
vn 0.4547 -0.4153 0.7879
vn 0.7879 -0.4153 0.4547
vn 0.9097 -0.4153 -0.0000
vn 0.7879 -0.4152 -0.4548
vn 0.4548 -0.4153 -0.7878
vn -0.0000 -0.8564 -0.5162
vn -0.2581 -0.8565 -0.4471
vn -0.4471 -0.8565 -0.2581
vn -0.5162 -0.8564 -0.0000
vn -0.4471 -0.8565 0.2581
vn -0.2581 -0.8564 0.4471
vn -0.0000 -0.8565 0.5162
vn 0.2581 -0.8565 0.4471
vn 0.4470 -0.8565 0.2581
vn 0.5162 -0.8565 -0.0000
vn 0.4471 -0.8564 -0.2581
vn 0.2579 -0.8565 -0.4471
vn -0.0000 -1.0000 -0.0000
vn 0.1712 -0.9757 -0.1366
vn 0.0243 0.9995 -0.0194
vn -0.0000 0.9995 -0.0310
vn -0.0000 -0.9757 -0.2190
vn -0.0000 0.8000 -0.6000
vn -0.0000 0.8886 -0.4587
vn -0.3586 0.8886 -0.2860
vn -0.4691 0.8000 -0.3741
vn -0.0003 0.7632 -0.6462
vn -0.5050 0.7633 -0.4029
vn -0.0000 -0.2353 -0.9719
vn -0.7599 -0.2352 -0.6060
vn -0.1711 -0.9758 -0.1364
vn -0.0242 0.9995 -0.0193
vn 0.8901 -0.4480 0.0840
vn -0.4473 0.8885 0.1020
vn -0.5849 0.8000 0.1335
vn -0.6298 0.7633 0.1438
vn -0.9476 -0.2352 0.2163
vn -0.2136 -0.9757 0.0487
vn -0.0303 0.9995 0.0069
vn 0.6104 -0.4405 -0.6583
vn -0.1990 0.8886 0.4133
vn -0.2604 0.8000 0.5406
vn -0.2803 0.7633 0.5820
vn -0.4218 -0.2352 0.8757
vn -0.0950 -0.9757 0.1974
vn -0.0135 0.9995 0.0280
vn -0.3050 -0.1493 -0.9406
vn 0.1990 0.8886 0.4133
vn 0.2603 0.8000 0.5406
vn 0.2803 0.7633 0.5820
vn 0.4217 -0.2352 0.8757
vn 0.0950 -0.9757 0.1974
vn 0.0135 0.9995 0.0280
vn -0.8834 -0.0559 -0.4653
vn 0.4472 0.8886 0.1021
vn 0.5849 0.8000 0.1335
vn 0.6298 0.7633 0.1438
vn 0.9476 -0.2352 0.2163
vn 0.2136 -0.9757 0.0487
vn 0.0303 0.9995 0.0069
vn -0.2339 -0.0185 0.9721
vn 0.3587 0.8886 -0.2861
vn 0.4691 0.8000 -0.3741
vn 0.5051 0.7633 -0.4028
vn 0.7599 -0.2353 -0.6060
vn -0.3672 -0.6817 0.6328
vn 0.3380 -0.6328 0.6966
vt 0.192800 0.971000
vt 0.819200 0.989700
vt 0.171100 0.860200
vt 0.846100 0.878600
vt 0.225000 0.857000
vt 0.234300 0.969100
vt 0.279300 0.859700
vt 0.281200 0.971200
vt 0.333600 0.864000
vt 0.332000 0.974900
vt 0.388000 0.868400
vt 0.385200 0.979000
vt 0.442600 0.872500
vt 0.440100 0.983100
vt 0.497400 0.876200
vt 0.496000 0.986700
vt 0.552700 0.879200
vt 0.552700 0.989600
vt 0.608300 0.881100
vt 0.610000 0.991200
vt 0.664700 0.881500
vt 0.667100 0.991200
vt 0.722500 0.880400
vt 0.722600 0.989400
vt 0.782800 0.878700
vt 0.774100 0.987400
vt 0.152200 0.730400
vt 0.857000 0.744300
vt 0.220600 0.730100
vt 0.283300 0.734100
vt 0.341500 0.738400
vt 0.397200 0.742500
vt 0.451700 0.746200
vt 0.505800 0.749800
vt 0.559800 0.752800
vt 0.614200 0.755100
vt 0.669600 0.756200
vt 0.727400 0.755700
vt 0.789400 0.753100
vt 0.163800 0.623300
vt 0.833800 0.637800
vt 0.230300 0.631900
vt 0.290600 0.636300
vt 0.346900 0.639400
vt 0.401200 0.642300
vt 0.454700 0.645600
vt 0.507800 0.648900
vt 0.560700 0.652100
vt 0.613300 0.654800
vt 0.666100 0.656700
vt 0.719700 0.656900
vt 0.775500 0.653400
vt 0.206200 0.538300
vt 0.787200 0.558400
vt 0.249900 0.547200
vt 0.298200 0.550400
vt 0.348800 0.552700
vt 0.400800 0.555300
vt 0.453300 0.558300
vt 0.505700 0.561600
vt 0.557600 0.564800
vt 0.608700 0.567600
vt 0.658300 0.569700
vt 0.705700 0.570600
vt 0.749500 0.568400
vt 0.250200 0.472500
vt 0.282400 0.475200
vt 0.327400 0.477500
vt 0.378200 0.479900
vt 0.430900 0.482800
vt 0.483600 0.486000
vt 0.535700 0.489200
vt 0.586500 0.492200
vt 0.635500 0.494700
vt 0.681100 0.496200
vt 0.719700 0.496100
vt 0.744400 0.494000
vt 0.322300 0.487600
vt 0.364900 0.475400
vt 0.428400 0.470400
vt 0.528100 0.439900
vt 0.558900 0.457000
vt 0.619300 0.465900
vt 0.668200 0.478800
vt 0.312400 0.442400
vt 0.743200 0.464000
vt 0.356700 0.425600
vt 0.252100 0.403600
vt 0.817300 0.424900
vt 0.315900 0.361700
vt 0.166800 0.362100
vt 0.897200 0.350900
vt 0.266600 0.297200
vt 0.120500 0.282600
vt 0.920600 0.251700
vt 0.254100 0.259600
vt 0.171100 0.191500
vt 0.858900 0.186900
vt 0.276700 0.209500
vt 0.811000 0.051400
vt 0.305200 0.066400
vt 0.349100 0.063800
vt 0.417800 0.419600
vt 0.398100 0.348800
vt 0.379900 0.281700
vt 0.373900 0.251700
vt 0.380100 0.207900
vt 0.421900 0.061400
vt 0.483500 0.417500
vt 0.482100 0.349600
vt 0.487400 0.283400
vt 0.484700 0.249700
vt 0.480500 0.203800
vt 0.506100 0.059500
vt 0.565400 0.412200
vt 0.574000 0.353000
vt 0.590200 0.290400
vt 0.589800 0.251900
vt 0.578100 0.202300
vt 0.594000 0.059000
vt 0.633900 0.422800
vt 0.661500 0.364500
vt 0.691700 0.302500
vt 0.693700 0.258000
vt 0.674100 0.203200
vt 0.679400 0.058900
vt 0.695700 0.438000
vt 0.743300 0.388100
vt 0.793100 0.326100
vt 0.801500 0.268100
vt 0.768800 0.200800
vt 0.755200 0.056800
s 1
usemtl wire_225143087
f 1/1/1 2/3/2 3/5/3 4/6/4
f 4/6/4 3/5/3 5/7/5 6/8/6
f 6/8/6 5/7/5 7/9/7 8/10/8
f 8/10/8 7/9/7 9/11/9 10/12/10
f 10/12/10 9/11/9 11/13/11 12/14/12
f 12/14/12 11/13/11 13/15/13 14/16/14
f 14/16/14 13/15/13 15/17/15 16/18/16
f 16/18/16 15/17/15 17/19/17 18/20/18
f 18/20/18 17/19/17 19/21/19 20/22/20
f 20/22/20 19/21/19 21/23/21 22/24/22
f 22/24/22 21/23/21 23/25/23 24/26/24
f 24/26/24 23/25/23 2/4/2 1/2/1
f 2/3/2 25/27/25 26/29/26 3/5/3
f 3/5/3 26/29/26 27/30/27 5/7/5
f 5/7/5 27/30/27 28/31/28 7/9/7
f 7/9/7 28/31/28 29/32/29 9/11/9
f 9/11/9 29/32/29 30/33/30 11/13/11
f 11/13/11 30/33/30 31/34/31 13/15/13
f 13/15/13 31/34/31 32/35/32 15/17/15
f 15/17/15 32/35/32 33/36/33 17/19/17
f 17/19/17 33/36/33 34/37/34 19/21/19
f 19/21/19 34/37/34 35/38/35 21/23/21
f 21/23/21 35/38/35 36/39/36 23/25/23
f 23/25/23 36/39/36 25/28/25 2/4/2
f 25/27/25 37/40/37 38/42/38 26/29/26
f 26/29/26 38/42/38 39/43/39 27/30/27
f 27/30/27 39/43/39 40/44/40 28/31/28
f 28/31/28 40/44/40 41/45/41 29/32/29
f 29/32/29 41/45/41 42/46/42 30/33/30
f 30/33/30 42/46/42 43/47/43 31/34/31
f 31/34/31 43/47/43 44/48/44 32/35/32
f 32/35/32 44/48/44 45/49/45 33/36/33
f 33/36/33 45/49/45 46/50/46 34/37/34
f 34/37/34 46/50/46 47/51/47 35/38/35
f 35/38/35 47/51/47 48/52/48 36/39/36
f 36/39/36 48/52/48 37/41/37 25/28/25
f 37/40/37 49/53/49 50/55/50 38/42/38
f 38/42/38 50/55/50 51/56/51 39/43/39
f 39/43/39 51/56/51 52/57/52 40/44/40
f 40/44/40 52/57/52 53/58/53 41/45/41
f 41/45/41 53/58/53 54/59/54 42/46/42
f 42/46/42 54/59/54 55/60/55 43/47/43
f 43/47/43 55/60/55 56/61/56 44/48/44
f 44/48/44 56/61/56 57/62/57 45/49/45
f 45/49/45 57/62/57 58/63/58 46/50/46
f 46/50/46 58/63/58 59/64/59 47/51/47
f 47/51/47 59/64/59 60/65/60 48/52/48
f 48/52/48 60/65/60 49/54/49 37/41/37
f 61/66/61 50/55/50 49/53/49
f 61/67/61 51/56/51 50/55/50
f 61/68/61 52/57/52 51/56/51
f 61/69/61 53/58/53 52/57/52
f 61/70/61 54/59/54 53/58/53
f 61/71/61 55/60/55 54/59/54
f 61/72/61 56/61/56 55/60/55
f 61/73/61 57/62/57 56/61/56
f 61/74/61 58/63/58 57/62/57
f 61/75/61 59/64/59 58/63/58
f 61/76/61 60/65/60 59/64/59
f 61/77/61 49/54/49 60/65/60
f 103/131/62 104/132/63 73/100/64 71/98/65
f 63/85/66 65/88/67 66/90/68 64/87/69
f 65/88/67 67/91/70 68/93/71 66/90/68
f 67/91/70 69/94/72 70/96/73 68/93/71
f 69/94/72 71/97/65 72/99/74 70/96/73
f 71/97/65 73/101/64 74/102/75 72/99/74
f 63/85/66 64/87/69 62/78/76
f 64/87/69 66/90/68 76/104/77 75/103/78
f 66/90/68 68/93/71 77/105/79 76/104/77
f 68/93/71 70/96/73 78/106/80 77/105/79
f 70/96/73 72/99/74 79/107/81 78/106/80
f 72/99/74 74/102/75 80/108/82 79/107/81
f 64/87/69 75/103/78 62/79/83
f 75/103/78 76/104/77 82/110/84 81/109/85
f 76/104/77 77/105/79 83/111/86 82/110/84
f 77/105/79 78/106/80 84/112/87 83/111/86
f 78/106/80 79/107/81 85/113/88 84/112/87
f 79/107/81 80/108/82 86/114/89 85/113/88
f 75/103/78 81/109/85 62/80/90
f 81/109/85 82/110/84 88/116/91 87/115/92
f 82/110/84 83/111/86 89/117/93 88/116/91
f 83/111/86 84/112/87 90/118/94 89/117/93
f 84/112/87 85/113/88 91/119/95 90/118/94
f 85/113/88 86/114/89 92/120/96 91/119/95
f 62/81/97 81/109/85 87/115/92
f 87/115/92 88/116/91 94/122/98 93/121/99
f 88/116/91 89/117/93 95/123/100 94/122/98
f 89/117/93 90/118/94 96/124/101 95/123/100
f 90/118/94 91/119/95 97/125/102 96/124/101
f 91/119/95 92/120/96 98/126/103 97/125/102
f 62/82/104 87/115/92 93/121/99
f 93/121/99 94/122/98 100/128/105 99/127/106
f 94/122/98 95/123/100 101/129/107 100/128/105
f 95/123/100 96/124/101 102/130/108 101/129/107
f 96/124/101 97/125/102 103/131/62 102/130/108
f 97/125/102 98/126/103 104/132/63 103/131/62
f 99/127/106 62/83/109 93/121/99
f 99/127/106 100/128/105 65/89/67 63/86/66
f 100/128/105 101/129/107 67/92/70 65/89/67
f 101/129/107 102/130/108 69/95/72 67/92/70
f 102/130/108 103/131/62 71/98/65 69/95/72
f 63/86/66 62/84/110 99/127/106
