# 3ds Max Wavefront OBJ Exporter v0.97b - (c)2007 guruware
# File Created: 20.07.2018 23:15:32

mtllib Tree_1_extra_crisp.mtl

#
# object GeoSphere008
#

v  -0.0032 0.1985 0.0203
v  0.3094 0.0142 -0.0713
v  -0.0627 0.0142 -0.1742
v  -0.1394 0.0142 -0.0644
v  -0.0490 0.0142 0.2438
v  0.2032 0.0142 0.2914
# 6 vertices

vn 0.1950 0.6815 -0.7054
vn -0.6187 0.6560 -0.4322
vn -0.8302 0.5015 0.2434
vn -0.1164 0.7779 0.6176
vn 0.5353 0.8300 0.1567
# 5 vertex normals

vt 0.6000 1.0000 33.3394
vt 0.5000 0.6476 33.3394
vt 0.7000 0.6476 33.3394
vt 0.8000 1.0000 33.3394
vt 0.9000 0.6476 33.3394
vt 0.0000 1.0000 33.3394
vt -0.1000 0.6476 33.3394
vt 0.1000 0.6476 33.3394
vt 0.2000 1.0000 33.3394
vt 0.3000 0.6476 33.3394
vt 0.4000 1.0000 33.3394
# 11 texture coords

g GeoSphere008
usemtl wire_115115115
s off
f 1/1/1 2/2/1 3/3/1 
f 1/4/2 3/3/2 4/5/2 
f 1/6/3 4/7/3 5/8/3 
f 1/9/4 5/8/4 6/10/4 
f 1/11/5 6/10/5 2/2/5 
# 0 polygons - 5 triangles

#
# object Cylinder018
#

v  0.0540 0.0002 0.0027
v  0.0258 0.0002 -0.0462
v  0.0151 0.7566 -0.0277
v  0.0327 0.7566 0.0027
v  -0.0307 0.0002 -0.0462
v  -0.0200 0.7566 -0.0277
v  -0.0590 0.0002 0.0027
v  -0.0376 0.7566 0.0027
v  -0.0307 0.0002 0.0517
v  -0.0200 0.7566 0.0332
v  0.0258 0.0002 0.0517
v  0.0151 0.7566 0.0332
v  0.0077 1.6955 0.0027
v  0.0026 1.6955 -0.0061
v  -0.0075 1.6955 -0.0061
v  -0.0126 1.6955 0.0027
v  -0.0075 1.6955 0.0116
v  0.0026 1.6955 0.0116
# 18 vertices

vn 0.8658 0.0244 -0.4999
vn -0.0000 0.0244 -0.9997
vn -0.8658 0.0244 -0.4999
vn -0.8658 0.0244 0.4999
vn 0.0000 0.0244 0.9997
vn 0.8658 0.0244 0.4999
vn 0.0000 -1.0000 -0.0000
vn 0.0000 1.0000 0.0000
vn 0.8658 0.0231 -0.4999
vn 0.0000 0.0231 -0.9997
vn -0.8658 0.0231 -0.4999
vn -0.8658 0.0231 0.4999
vn 0.0000 0.0231 0.9997
vn 0.8658 0.0231 0.4999
# 14 vertex normals

vt 0.7500 0.0000 1.0000
vt 0.9167 0.0000 1.0000
vt 0.9167 0.5000 1.0000
vt 0.7500 0.5000 1.0000
vt 1.0833 0.0000 1.0000
vt 1.0833 0.5000 1.0000
vt 0.0833 0.0000 1.0000
vt 0.2500 0.0000 1.0000
vt 0.2500 0.5000 1.0000
vt 0.0833 0.5000 1.0000
vt 0.4167 0.0000 1.0000
vt 0.4167 0.5000 1.0000
vt 0.5833 0.0000 1.0000
vt 0.5833 0.5000 1.0000
vt 0.9330 0.7500 -0.2500
vt 0.9330 0.2500 -0.2500
vt 0.5000 0.0000 -0.2500
vt 0.0670 0.2500 -0.2500
vt 0.0670 0.7500 -0.2500
vt 0.5000 1.0000 -0.2500
vt 0.5000 1.0000 0.2500
vt 0.0670 0.7500 0.2500
vt 0.0670 0.2500 0.2500
vt 0.5000 0.0000 0.2500
vt 0.9330 0.2500 0.2500
vt 0.9330 0.7500 0.2500
vt 0.9167 1.0000 1.0000
vt 0.7500 1.0000 1.0000
vt 1.0833 1.0000 1.0000
vt 0.2500 1.0000 1.0000
vt 0.0833 1.0000 1.0000
vt 0.4167 1.0000 1.0000
vt 0.5833 1.0000 1.0000
# 33 texture coords

g Cylinder018
usemtl wire_003003003
s off
f 7/12/6 8/13/6 9/14/6 10/15/6 
f 8/13/7 11/16/7 12/17/7 9/14/7 
f 11/18/8 13/19/8 14/20/8 12/21/8 
f 13/19/9 15/22/9 16/23/9 14/20/9 
f 15/22/10 17/24/10 18/25/10 16/23/10 
f 17/24/11 7/12/11 10/15/11 18/25/11 
f 17/26/12 15/27/12 13/28/12 11/29/12 8/30/12 7/31/12 
f 19/32/13 20/33/13 21/34/13 22/35/13 23/36/13 24/37/13 
f 9/14/14 20/38/14 19/39/14 10/15/14 
f 12/17/15 21/40/15 20/38/15 9/14/15 
f 14/20/16 22/41/16 21/42/16 12/21/16 
f 16/23/17 23/43/17 22/41/17 14/20/17 
f 18/25/18 24/44/18 23/43/18 16/23/18 
f 10/15/19 19/39/19 24/44/19 18/25/19 
# 14 polygons

