# 3ds Max Wavefront OBJ Exporter v0.97b - (c)2007 guruware
# File Created: 20.07.2018 23:08:01

mtllib Tree_2.mtl

#
# object Cylinder007
#

v  0.0394 0.0000 -0.0000
v  0.0197 0.0000 -0.0341
v  0.0123 0.5270 -0.0212
v  0.0245 0.5270 0.0000
v  -0.0197 0.0000 -0.0341
v  -0.0123 0.5270 -0.0212
v  -0.0394 0.0000 0.0000
v  -0.0245 0.5270 0.0000
v  -0.0197 0.0000 0.0341
v  -0.0123 0.5270 0.0212
v  0.0197 0.0000 0.0341
v  0.0123 0.5270 0.0212
v  0.0071 1.1811 0.0000
v  0.0035 1.1811 -0.0061
v  -0.0035 1.1811 -0.0061
v  -0.0071 1.1811 0.0000
v  -0.0035 1.1811 0.0061
v  0.0035 1.1811 0.0061
v  0.3374 0.3656 -0.0188
v  0.2001 0.3670 -0.1248
v  0.1221 0.4105 -0.0773
v  0.2032 0.4396 -0.0123
v  0.1805 0.3209 -0.3011
v  0.0219 0.3433 -0.2208
v  0.0156 0.4105 -0.1366
v  0.1076 0.4396 -0.1782
v  -0.1403 0.3085 -0.2662
v  -0.1537 0.3459 -0.0873
v  -0.0912 0.4105 -0.0651
v  -0.0833 0.4396 -0.1716
v  -0.3042 0.3122 0.0322
v  -0.1765 0.3733 0.1170
v  -0.0979 0.4105 0.0581
v  -0.1785 0.4396 0.0060
v  -0.1917 0.3112 0.2895
v  -0.0202 0.3374 0.1877
v  0.0012 0.4105 0.1097
v  -0.0976 0.4396 0.1589
v  0.1291 0.3098 0.2546
v  0.1772 0.3210 0.0795
v  0.1154 0.4105 0.0459
v  0.0933 0.4396 0.1524
v  0.0151 0.6383 -0.0239
v  0.0208 0.5509 -0.0152
v  -0.0066 0.6383 -0.0259
v  0.0079 0.5509 -0.0231
v  -0.0156 0.6383 -0.0081
v  -0.0041 0.5509 -0.0166
v  -0.0030 0.6383 0.0116
v  -0.0033 0.5509 -0.0022
v  0.0187 0.6383 0.0137
v  0.0095 0.5509 0.0057
v  0.0278 0.6383 -0.0040
v  0.0216 0.5509 -0.0008
v  0.2105 0.6242 0.0090
v  0.1114 0.6536 -0.0597
v  0.0656 0.6940 -0.0348
v  0.1217 0.7172 0.0071
v  0.0964 0.5918 -0.1759
v  -0.0082 0.6243 -0.1336
v  -0.0058 0.6940 -0.0785
v  0.0552 0.7172 -0.1021
v  -0.1148 0.6073 -0.1879
v  -0.1214 0.6264 -0.0725
v  -0.0733 0.6940 -0.0420
v  -0.0685 0.7172 -0.1082
v  -0.2120 0.5948 -0.0055
v  -0.1132 0.6136 0.0619
v  -0.0689 0.6940 0.0381
v  -0.1256 0.7172 -0.0036
v  -0.0995 0.6758 0.1780
v  0.0058 0.5587 0.1352
v  0.0025 0.6940 0.0818
v  -0.0587 0.7172 0.1059
v  0.1117 0.6845 0.1900
v  0.1196 0.6225 0.0747
v  0.0699 0.6940 0.0454
v  0.0649 0.7172 0.1121
v  0.0021 0.8809 -0.0072
v  0.0046 0.8111 -0.0011
v  -0.0115 0.8809 -0.0077
v  -0.0035 0.8111 -0.0060
v  -0.0179 0.8809 0.0038
v  -0.0113 0.8111 -0.0018
v  -0.0106 0.8809 0.0158
v  -0.0109 0.8111 0.0074
v  0.0030 0.8809 0.0163
v  -0.0027 0.8111 0.0123
v  0.0093 0.8809 0.0048
v  0.0050 0.8111 0.0080
v  0.1111 0.9948 -0.0100
v  0.0647 0.9028 -0.0417
v  0.0388 0.9932 -0.0254
v  0.0633 1.0186 -0.0049
v  0.0595 0.9051 -0.0971
v  0.0088 0.8665 -0.0750
v  0.0059 0.9932 -0.0454
v  0.0329 1.0186 -0.0551
v  -0.0414 0.8896 -0.1005
v  -0.0464 0.9046 -0.0454
v  -0.0259 0.9932 -0.0284
v  -0.0243 1.0186 -0.0580
v  -0.0908 0.9281 -0.0160
v  -0.0442 0.9555 0.0188
v  -0.0242 0.9932 0.0090
v  -0.0510 1.0186 -0.0106
v  -0.0360 0.9253 0.0743
v  0.0131 0.9580 0.0534
v  0.0093 0.9932 0.0294
v  -0.0193 1.0186 0.0409
v  0.0649 0.9342 0.0777
v  0.0670 0.9603 0.0225
v  0.0406 0.9932 0.0119
v  0.0378 1.0186 0.0438
v  -0.0014 1.2386 0.0007
v  -0.0018 1.1622 -0.0049
v  -0.0015 1.1622 -0.0008
v  0.0022 1.1622 0.0015
# 118 vertices

vn 0.8658 0.0244 -0.4999
vn -0.0000 0.0244 -0.9997
vn -0.8658 0.0244 -0.4999
vn -0.8658 0.0244 0.4999
vn 0.0000 0.0244 0.9997
vn 0.8658 0.0244 0.4999
vn 0.0000 -1.0000 -0.0000
vn 0.0000 1.0000 0.0000
vn 0.8658 0.0231 -0.4999
vn 0.0000 0.0231 -0.9997
vn -0.8658 0.0231 -0.4999
vn -0.8658 0.0231 0.4999
vn 0.0000 0.0231 0.9997
vn 0.8658 0.0231 0.4999
vn 0.3077 0.7957 -0.5218
vn -0.3550 0.6243 -0.6959
vn -0.8293 0.5534 -0.0781
vn -0.4270 0.7729 0.4693
vn 0.4189 0.5261 0.7401
vn 0.8517 0.4918 0.1810
vn 0.9009 0.3698 0.2270
vn 0.6258 0.3891 -0.6760
vn -0.3256 0.3295 -0.8862
vn -0.8983 0.3112 -0.3103
vn -0.6946 0.3240 0.6424
vn 0.2388 0.2944 0.9254
vn 0.6565 0.7436 -0.1263
vn 0.2182 0.6222 -0.7518
vn -0.5413 0.5172 -0.6629
vn -0.6589 0.7502 0.0550
vn -0.3292 0.6140 0.7174
vn 0.3340 0.5299 0.7795
vn 0.2521 0.3892 -0.8860
vn -0.6694 0.3283 -0.6664
vn -0.9198 0.2978 0.2555
vn -0.1662 0.3301 0.9292
vn 0.6608 0.3071 0.6849
vn 0.9164 0.3657 -0.1628
vn 0.4814 0.5967 -0.6420
vn -0.2997 0.4840 -0.8221
vn -0.8703 0.4906 -0.0436
vn -0.5154 0.4133 0.7507
vn 0.5998 0.3748 0.7069
vn 0.8124 0.5479 -0.1994
vn 0.9363 0.2884 0.2005
vn 0.6730 0.2797 -0.6848
vn -0.2270 0.2946 -0.9283
vn -0.9418 0.2699 -0.2003
vn -0.6804 0.2441 0.6910
vn 0.2310 0.2774 0.9326
vn 0.7996 0.5557 -0.2275
vn 0.4049 0.4764 -0.7804
vn -0.5343 0.4952 -0.6851
vn -0.8562 0.5020 -0.1219
vn -0.6462 0.3408 0.6829
vn 0.4451 0.5141 0.7332
vn 0.2894 0.2808 -0.9151
vn -0.6635 0.2906 -0.6894
vn -0.9274 0.2564 0.2723
vn -0.2928 0.2497 0.9230
vn 0.6650 0.2898 0.6884
vn 0.9190 0.2871 -0.2701
vn 0.1933 0.2991 -0.9344
vn -0.5028 0.1897 -0.8433
vn -0.9812 0.1850 -0.0543
vn -0.5738 0.2938 0.7645
vn 0.3310 0.3568 0.8736
vn 0.9010 0.4307 0.0522
vn 0.9844 0.1673 -0.0547
vn 0.5024 0.1739 -0.8470
vn -0.3053 0.1421 -0.9416
vn -0.9889 0.0877 -0.1196
vn -0.6550 0.0596 0.7533
vn 0.4975 0.1244 0.8585
vn 0.9645 0.2606 -0.0423
vn 0.5186 0.2052 -0.8300
vn -0.4181 0.2501 -0.8733
vn -0.9362 0.3144 0.1572
vn -0.4180 0.3061 0.8553
vn 0.2597 0.4241 0.8676
vn 0.5214 0.1745 -0.8353
vn -0.4584 0.1507 -0.8759
vn -0.9731 0.0711 0.2191
vn -0.3738 0.0660 0.9252
vn 0.6288 0.1174 0.7687
vn 0.9849 0.1662 -0.0485
# 86 vertex normals

vt 0.0677 0.1918 0.0000
vt 0.0937 0.1912 0.0000
vt 0.0968 0.5396 0.0000
vt 0.0806 0.5399 0.0000
vt 0.1196 0.1913 0.0000
vt 0.1130 0.5396 0.0000
vt 0.1456 0.1922 0.0000
vt 0.1292 0.5400 0.0000
vt 0.1715 0.1937 0.0000
vt 0.1454 0.5409 0.0000
vt 0.0159 0.1951 0.0000
vt 0.0418 0.1931 0.0000
vt 0.0644 0.5406 0.0000
vt 0.0483 0.5417 0.0000
vt 0.1421 0.1541 0.0000
vt 0.1154 0.1541 0.0000
vt 0.1021 0.1310 0.0000
vt 0.1154 0.1079 0.0000
vt 0.1421 0.1079 0.0000
vt 0.1554 0.1310 0.0000
vt 0.0666 0.1512 0.0000
vt 0.0642 0.1554 0.0000
vt 0.0594 0.1554 0.0000
vt 0.0570 0.1512 0.0000
vt 0.0594 0.1470 0.0000
vt 0.0642 0.1470 0.0000
vt 0.0993 0.9719 0.0000
vt 0.0918 0.9720 0.0000
vt 0.1068 0.9719 0.0000
vt 0.1144 0.9721 0.0000
vt 0.1219 0.9724 0.0000
vt 0.0842 0.9723 0.0000
vt 0.0767 0.9727 0.0000
vt 0.7557 0.3944 0.0000
vt 0.6433 0.3594 0.0000
vt 0.6348 0.2940 0.0000
vt 0.7136 0.2907 0.0000
vt 0.5538 0.4447 0.0000
vt 0.4765 0.3522 0.0000
vt 0.4975 0.2841 0.0000
vt 0.5642 0.3150 0.0000
vt 0.3618 0.3597 0.0000
vt 0.3299 0.2411 0.0000
vt 0.3784 0.2037 0.0000
vt 0.4266 0.2620 0.0000
vt 0.2033 0.1961 0.0000
vt 0.2480 0.0921 0.0000
vt 0.3144 0.0813 0.0000
vt 0.3209 0.1478 0.0000
vt 1.0082 0.0163 0.0000
vt 0.9113 0.1106 0.0000
vt 0.8402 0.1010 0.0000
vt 0.8706 0.0322 0.0000
vt 0.9272 0.2196 0.0000
vt 0.8237 0.2821 0.0000
vt 0.7677 0.2286 0.0000
vt 0.8222 0.1708 0.0000
vt 0.5754 0.1320 0.0000
vt 0.6135 0.1742 0.0000
vt 0.5181 0.1130 0.0000
vt 0.5328 0.1693 0.0000
vt 0.4774 0.0708 0.0000
vt 0.4617 0.1256 0.0000
vt 0.2826 0.0217 0.0000
vt 0.4572 0.0020 0.0000
vt 0.4240 0.0503 0.0000
vt 0.6740 0.0826 0.0000
vt 0.7301 0.0673 0.0000
vt 0.6340 0.1213 0.0000
vt 0.6871 0.1394 0.0000
vt 0.1376 0.0243 0.0000
vt 0.6947 0.0202 0.0000
vt 0.4851 0.7520 0.0000
vt 0.4418 0.6643 0.0000
vt 0.4649 0.6191 0.0000
vt 0.5196 0.6491 0.0000
vt 0.3400 0.6897 0.0000
vt 0.3200 0.5993 0.0000
vt 0.3737 0.5538 0.0000
vt 0.4140 0.5929 0.0000
vt 0.2319 0.5624 0.0000
vt 0.2520 0.4720 0.0000
vt 0.3190 0.4532 0.0000
vt 0.3351 0.5081 0.0000
vt 0.9100 0.3934 0.0000
vt 0.8689 0.4812 0.0000
vt 0.7895 0.4808 0.0000
vt 0.7928 0.4185 0.0000
vt 0.8596 0.5850 0.0000
vt 0.8161 0.7193 0.0000
vt 0.7192 0.6075 0.0000
vt 0.7736 0.5554 0.0000
vt 0.6689 0.7575 0.0000
vt 0.5700 0.7332 0.0000
vt 0.5814 0.6564 0.0000
vt 0.6594 0.6614 0.0000
vt 0.5099 0.4674 0.0000
vt 0.5097 0.5223 0.0000
vt 0.4774 0.4313 0.0000
vt 0.4572 0.4823 0.0000
vt 0.3072 0.3999 0.0000
vt 0.4628 0.3801 0.0000
vt 0.4237 0.4206 0.0000
vt 0.6240 0.4596 0.0000
vt 0.6780 0.4541 0.0000
vt 0.5954 0.4847 0.0000
vt 0.6421 0.5111 0.0000
vt 0.5518 0.4868 0.0000
vt 0.5766 0.5354 0.0000
vt 0.1879 0.4042 0.0000
vt 0.6342 0.4180 0.0000
vt 0.7879 0.7772 0.0000
vt 0.8403 0.7168 0.0000
vt 0.8441 0.7954 0.0000
vt 0.8136 0.8157 0.0000
vt 0.8827 0.7083 0.0000
vt 0.9348 0.6968 0.0000
vt 0.9056 0.7986 0.0000
vt 0.8755 0.8109 0.0000
vt 0.1741 0.6960 0.0000
vt 0.2262 0.6998 0.0000
vt 0.2554 0.7781 0.0000
vt 0.2327 0.8062 0.0000
vt 0.2800 0.6984 0.0000
vt 0.3248 0.7347 0.0000
vt 0.3240 0.7724 0.0000
vt 0.2905 0.7881 0.0000
vt 0.3713 0.7035 0.0000
vt 0.4008 0.7501 0.0000
vt 0.3880 0.7843 0.0000
vt 0.3545 0.7907 0.0000
vt 0.7150 0.8074 0.0000
vt 0.7606 0.8042 0.0000
vt 0.7819 0.8259 0.0000
vt 0.7676 0.8551 0.0000
vt 0.8771 0.9804 0.0000
vt 0.9304 0.8234 0.0000
vt 0.3218 0.9644 0.0000
vt 0.3000 0.9034 0.0000
vt 0.3223 0.9030 0.0000
vt 0.4142 0.8083 0.0000
vt 0.3438 0.9046 0.0000
vt 0.9759 0.7222 0.0000
vt 0.4539 0.7324 0.0000
# 144 texture coords

g Cylinder007
usemtl wire_135059008
s off
f 1/1/1 2/2/1 3/3/1 4/4/1 
f 2/2/2 5/5/2 6/6/2 3/3/2 
f 5/5/3 7/7/3 8/8/3 6/6/3 
f 7/7/4 9/9/4 10/10/4 8/8/4 
f 9/11/5 11/12/5 12/13/5 10/14/5 
f 11/12/6 1/1/6 4/4/6 12/13/6 
f 11/15/7 9/16/7 7/17/7 5/18/7 2/19/7 1/20/7 
f 13/21/8 14/22/8 15/23/8 16/24/8 17/25/8 18/26/8 
f 3/3/9 14/27/9 13/28/9 4/4/9 
f 6/6/10 15/29/10 14/27/10 3/3/10 
f 8/8/11 16/30/11 15/29/11 6/6/11 
f 10/10/12 17/31/12 16/30/12 8/8/12 
f 12/13/13 18/32/13 17/33/13 10/14/13 
f 4/4/14 13/28/14 18/32/14 12/13/14 
f 19/34/15 20/35/15 21/36/15 22/37/15 
f 23/38/16 24/39/16 25/40/16 26/41/16 
f 27/42/17 28/43/17 29/44/17 30/45/17 
f 31/46/18 32/47/18 33/48/18 34/49/18 
f 35/50/19 36/51/19 37/52/19 38/53/19 
f 39/54/20 40/55/20 41/56/20 42/57/20 
f 26/41/21 43/58/21 44/59/21 21/36/21 
f 30/45/22 45/60/22 46/61/22 25/40/22 
f 34/49/23 47/62/23 48/63/23 29/44/23 
f 38/64/24 49/65/24 50/66/24 33/48/24 
f 42/57/25 51/67/25 52/68/25 37/52/25 
f 22/37/26 53/69/26 54/70/26 41/56/26 
f 20/35/27 23/38/27 26/41/27 21/36/27 
f 24/39/28 27/42/28 30/45/28 25/40/28 
f 28/43/29 31/46/29 34/49/29 29/44/29 
f 32/47/30 35/71/30 38/64/30 33/48/30 
f 36/51/31 39/54/31 42/57/31 37/52/31 
f 40/55/32 19/34/32 22/37/32 41/56/32 
f 44/59/33 53/69/33 22/37/33 21/36/33 
f 46/61/34 43/58/34 26/41/34 25/40/34 
f 48/63/35 45/60/35 30/45/35 29/44/35 
f 50/66/36 47/62/36 34/49/36 33/48/36 
f 52/68/37 49/72/37 38/53/37 37/52/37 
f 54/70/38 51/67/38 42/57/38 41/56/38 
f 55/73/39 56/74/39 57/75/39 58/76/39 
f 59/77/40 60/78/40 61/79/40 62/80/40 
f 63/81/41 64/82/41 65/83/41 66/84/41 
f 67/85/42 68/86/42 69/87/42 70/88/42 
f 71/89/43 72/90/43 73/91/43 74/92/43 
f 75/93/44 76/94/44 77/95/44 78/96/44 
f 62/80/45 79/97/45 80/98/45 57/75/45 
f 66/84/46 81/99/46 82/100/46 61/79/46 
f 70/101/47 83/102/47 84/103/47 65/83/47 
f 74/92/48 85/104/48 86/105/48 69/87/48 
f 78/96/49 87/106/49 88/107/49 73/91/49 
f 58/76/50 89/108/50 90/109/50 77/95/50 
f 56/74/51 59/77/51 62/80/51 57/75/51 
f 60/78/52 63/81/52 66/84/52 61/79/52 
f 64/82/53 67/110/53 70/101/53 65/83/53 
f 68/86/54 71/89/54 74/92/54 69/87/54 
f 72/90/55 75/93/55 78/96/55 73/91/55 
f 76/94/56 55/73/56 58/76/56 77/95/56 
f 80/98/57 89/108/57 58/76/57 57/75/57 
f 82/100/58 79/97/58 62/80/58 61/79/58 
f 84/103/59 81/99/59 66/84/59 65/83/59 
f 86/105/60 83/111/60 70/88/60 69/87/60 
f 88/107/61 85/104/61 74/92/61 73/91/61 
f 90/109/62 87/106/62 78/96/62 77/95/62 
f 91/112/63 92/113/63 93/114/63 94/115/63 
f 95/116/64 96/117/64 97/118/64 98/119/64 
f 99/120/65 100/121/65 101/122/65 102/123/65 
f 103/124/66 104/125/66 105/126/66 106/127/66 
f 107/128/67 108/129/67 109/130/67 110/131/67 
f 111/132/68 112/133/68 113/134/68 114/135/68 
f 98/119/69 115/136/69 93/114/69 
f 102/137/70 115/136/70 97/118/70 
f 106/127/71 115/138/71 116/139/71 101/122/71 
f 110/131/72 115/138/72 117/140/72 105/126/72 
f 114/141/73 115/138/73 118/142/73 109/130/73 
f 94/115/74 115/136/74 113/134/74 
f 92/113/75 95/116/75 98/119/75 93/114/75 
f 96/117/76 99/143/76 102/137/76 97/118/76 
f 100/121/77 103/124/77 106/127/77 101/122/77 
f 104/125/78 107/128/78 110/131/78 105/126/78 
f 108/129/79 111/144/79 114/141/79 109/130/79 
f 112/133/80 91/112/80 94/115/80 113/134/80 
f 115/136/81 94/115/81 93/114/81 
f 115/136/82 98/119/82 97/118/82 
f 116/139/83 115/138/83 102/123/83 101/122/83 
f 117/140/84 115/138/84 106/127/84 105/126/84 
f 118/142/85 115/138/85 110/131/85 109/130/85 
f 115/136/86 114/135/86 113/134/86 
# 80 polygons - 6 triangles

